<?xml version="1.0" encoding="utf-8"?>
<!-- Generator: Adobe Illustrator 24.1.2, SVG Export Plug-In . SVG Version: 6.00 Build 0)  -->
<svg version="1.1" xmlns="http://www.w3.org/2000/svg" xmlns:xlink="http://www.w3.org/1999/xlink" x="0px" y="0px"
	 viewBox="0 0 469.3 469.3" style="enable-background:new 0 0 469.3 469.3;" xml:space="preserve">
<style type="text/css">
	.st0{fill:none;}
	.st1{fill:none;stroke:#0B4094;stroke-width:13;stroke-miterlimit:10;}
	.st2{display:none;}
	.st3{display:inline;fill:#0B4094;}
	.st4{display:inline;fill:#020100;}
	.st5{fill:none;stroke:#0B4094;stroke-width:17;stroke-miterlimit:10;}
	.st6{display:inline;fill:#AA8C71;}
</style>
<g id="Capa_1">
	<line class="st0" x1="236" y1="-7957" x2="236" y2="8426"/>
	<circle class="st1" cx="236" cy="234.7" r="220"/>
	<line class="st0" x1="-7957" y1="228" x2="8426" y2="228"/>
	<g class="st2">
		<path class="st3" d="M115,113v274.7c0,2.9,2.4,5.3,5.3,5.3H321c2.9,0,5.3-2.4,5.3-5.3V165.8c0-0.1-0.1-0.2-0.1-0.3
			c0-0.5-0.1-0.9-0.3-1.4c-0.1-0.2-0.1-0.3-0.2-0.5c-0.3-0.6-0.6-1.1-1.1-1.5l-52.8-52.8c-0.4-0.4-1-0.8-1.6-1.1
			c-0.2-0.1-0.3-0.1-0.5-0.2c-0.4-0.2-0.9-0.2-1.4-0.3c-0.1,0-0.2,0-0.3,0H120.3C117.3,107.7,115,110.1,115,113z M308.3,160.5h-34.8
			v-34.8L308.3,160.5z M125.5,118.3h137.4v47.6c0,2.9,2.4,5.3,5.3,5.3h47.6v211.3H125.5V118.3z"/>
		<path class="st3" d="M336.9,350.7v10.6h15.8c2.9,0,5.3-2.4,5.3-5.3V81.3c0-2.9-2.4-5.3-5.3-5.3H152c-2.9,0-5.3,2.4-5.3,5.3v15.8
			h10.6V86.6h190.2v264.2H336.9z"/>
		<path class="st3" d="M157.3,181.7H284v10.6H157.3V181.7z"/>
		<path class="st3" d="M157.3,150h42.3v10.6h-42.3V150z"/>
		<path class="st3" d="M157.3,213.4h84.5v10.6h-84.5V213.4z"/>
		<path class="st3" d="M252.3,213.4H284v10.6h-31.7V213.4z"/>
		<path class="st3" d="M157.3,245.1H284v10.6H157.3V245.1z"/>
		<path class="st3" d="M157.3,308.5H284V319H157.3V308.5z"/>
		<path class="st3" d="M204.8,276.8H284v10.6h-79.3V276.8z"/>
		<path class="st3" d="M157.3,276.8h37v10.6h-37V276.8z"/>
		<path class="st3" d="M157.3,340.2h21.1v10.6h-21.1V340.2z"/>
		<path class="st3" d="M188.9,340.2H284v10.6h-95.1V340.2z"/>
	</g>
	
		<image style="display:none;overflow:visible;" width="512" height="512" xlink:href="C:\Users\USER\Downloads\best-choice.png"  transform="matrix(0.6563 0 0 0.6563 73 51)">
	</image>
</g>
<g id="레이어_2" class="st2">
	<path class="st4" d="M73,224.2c0,0-5.8-16.1,15.6-16.9s94.2,0,94.2,0s46-20.7,76.6-55.9s68.9-76.6,68.9-76.6s14.6-10.7,26.8,29.9
		c12.3,40.6-39.8,81.2-39.8,81.2l65.9,1.5c0,0,48.3,3.1,16.9,71.2l-29.1,95c0,0-11.5,10.7-27.6,10.7c-16.1,0-78.9,0-78.9,0
		s-28.3-1.5-44.4-19.1l-26-1.5c0,0,8.4,19.9-15.3,20.7s-94.2,0-94.2,0s-9.5,2.3-9.5-25.3S73,224.2,73,224.2z"/>
</g>
<g id="레이어_4">
	<path class="st5" d="M187.4,219c0,0,123.3-86,136.3-129.6s36,22.2,23,46.7s-43.7,53.6-43.7,53.6s-10,10.7,53.6,6.1
		c63.6-4.6,39.1,26.8,29.9,69.7l-24.5,76.6c0,0,0.8,16.1-63.6,14.6l-37.5,0.1c0,0-38.6-11.8-36.5-20c2-8.2-37-2-37-2V219z"/>
	<path class="st5" d="M187.4,334.7v15.3c0,0-72.3,12.8-103.9,2V219c0,0,65.4-12.1,100.1,0"/>
</g>
<g id="레이어_3" class="st2">
	<path class="st6" d="M334.5,100.1c0,0,23.4,25.3-37.5,82c0,0-34,32.2,42,24.5l41.5,1.2c0,0,23.7-11.9-16.1,91.5l-13,38.3
		c0,0,0,10-46,6.9l-39.1,0.6c0,0-29.9-3.6-39.8-19.7l-32.2,0.8V225C194.3,225,333,107.8,334.5,100.1z"/>
</g>
</svg>
