<?xml version="1.0" encoding="utf-8"?>
<!-- Generator: Adobe Illustrator 24.1.2, SVG Export Plug-In . SVG Version: 6.00 Build 0)  -->
<svg version="1.1" id="레이어_1" xmlns="http://www.w3.org/2000/svg" xmlns:xlink="http://www.w3.org/1999/xlink" x="0px"
	 y="0px" viewBox="0 0 62 60" style="enable-background:new 0 0 62 60;" xml:space="preserve">
<style type="text/css">
	.st0{fill:#2FB14A;}
	.st1{fill:#FFFFFF;}
	.st2{fill:#F37527;}
</style>
<g>
	<path class="st0" d="M58.5,47.7c0,5.6-4.5,10.1-10.1,10.1H12.9c-5.6,0-10.1-4.5-10.1-10.1V12.6C2.7,7,7.3,2.5,12.9,2.5h35.5
		C54,2.5,58.5,7,58.5,12.6V47.7z"/>
	<path class="st1" d="M46.4,7H14c-4.1,0-7.5,3.4-7.5,7.5v17.8c0,4.1,3.3,7.5,7.5,7.5h11.1L29,46c0,0,0,0.1,0.1,0.2
		c0.2,0.4,0.6,0.6,1.1,0.6c0.5,0,0.9-0.3,1.1-0.6c0.1-0.1,0.1-0.2,0.1-0.2l3.8-6.2h11.1c4.1,0,7.5-3.4,7.5-7.5V14.5
		C53.8,10.4,50.5,7,46.4,7"/>
	<path class="st2" d="M17.1,20c0,0-1.3,0-2.5,1.1v-4.6h-2.9v12.1h2.9v-0.9c0,0,0.7,1.2,2.4,1.2c0,0,4.1-0.2,4.1-4.5
		C21.1,24.5,21,20,17.1,20 M16.4,26.4c-1,0-1.9-0.8-1.9-1.9c0-1,0.8-1.9,1.9-1.9c1,0,1.9,0.8,1.9,1.9C18.3,25.6,17.5,26.4,16.4,26.4
		"/>
	<path class="st2" d="M22.1,16.3v2.8c0,0,1.3-0.1,1.3,2.4v7.1h2.8v-7.8C26.2,20.9,26.3,16.3,22.1,16.3"/>
	<path class="st2" d="M33,20.1c0,0-4.8,0-4.8,4.5c0,0-0.2,4.4,4.8,4.4c0,0,4.9,0,4.9-4.4C37.9,24.6,38.1,20.1,33,20.1 M33,26.4
		c-1,0-1.9-0.8-1.9-1.9c0-1,0.8-1.9,1.9-1.9c1,0,1.9,0.8,1.9,1.9C34.9,25.6,34,26.4,33,26.4"/>
	<path class="st2" d="M45.9,20.4v0.8c0,0-0.8-1.1-2.4-1.1c0,0-4.1-0.2-4.1,4.4c0,0,0,4.3,4,4.3c0,0,1.6,0.1,2.5-1.1v0.7
		c0,0,0.2,2.1-1.8,2.1h-0.7v2.6h1.1c0,0,4.2,0,4.2-4.5v-8.2H45.9z M44.2,26.4c-1,0-1.9-0.8-1.9-1.9c0-1,0.8-1.9,1.9-1.9
		c1,0,1.9,0.8,1.9,1.9C46,25.6,45.2,26.4,44.2,26.4"/>
</g>
</svg>
