<?xml version="1.0" encoding="utf-8"?>
<!-- Generator: Adobe Illustrator 24.1.2, SVG Export Plug-In . SVG Version: 6.00 Build 0)  -->
<svg version="1.1" id="Capa_1" xmlns="http://www.w3.org/2000/svg" xmlns:xlink="http://www.w3.org/1999/xlink" x="0px" y="0px"
	 viewBox="0 0 469.3 469.3" style="enable-background:new 0 0 469.3 469.3;" xml:space="preserve">
<style type="text/css">
	.st0{fill:none;}
	.st1{fill:none;stroke:#0B4094;stroke-width:13;stroke-miterlimit:10;}
	.st2{fill:#0B4094;}
</style>
<line class="st0" x1="236" y1="-7957" x2="236" y2="8426"/>
<circle class="st1" cx="236" cy="234.7" r="220"/>
<line class="st0" x1="-7957" y1="228" x2="8426" y2="228"/>
<g>
	<path class="st2" d="M207,139.7H264c2.6,0,4.8-2.1,4.8-4.8s-2.1-4.8-4.8-4.8H207c-2.6,0-4.8,2.1-4.8,4.8S204.3,139.7,207,139.7z"/>
	<path class="st2" d="M235.5,120.7c7.9,0,14.3-6.4,14.3-14.3s-6.4-14.3-14.3-14.3c-7.9,0-14.3,6.4-14.3,14.3
		S227.6,120.7,235.5,120.7z M235.5,101.7c2.6,0,4.8,2.1,4.8,4.8c0,2.6-2.1,4.8-4.8,4.8s-4.8-2.1-4.8-4.8
		C230.7,103.8,232.9,101.7,235.5,101.7z"/>
	<path class="st2" d="M330.7,101.7h-62.2c-2.3-16.1-16.2-28.5-33-28.5s-30.6,12.4-33,28.5h-62.2c-13.1,0-23.8,10.7-23.8,23.8v248.7
		c0,13.1,10.7,23.8,23.8,23.8h190.3c13.1,0,23.8-10.7,23.8-23.8V125.4C354.4,112.3,343.8,101.7,330.7,101.7z M207,111.2
		c2.6,0,4.8-2.1,4.8-4.8c0-13.1,10.7-23.8,23.8-23.8c13.1,0,23.8,10.7,23.8,23.8c0,2.6,2.1,4.8,4.8,4.8h14.3V135
		c0,2.6,2.1,4.8,4.8,4.8h9.5c6.2,0,11.5,4,13.5,9.5H165c2-5.5,7.3-9.5,13.5-9.5h9.5c2.6,0,4.8-2.1,4.8-4.8v-23.8H207z M325.9,202.8
		c0,18.4-14.9,33.3-33.3,33.3h-57.1c-2.6,0-4.8,2.1-4.8,4.8V298c0,18.4-14.9,33.3-33.3,33.3h-52.3V139.7h14.3c-3,4-4.8,8.9-4.8,14.3
		c0,2.6,2.1,4.8,4.8,4.8h152.2c2.6,0,4.8-2.1,4.8-4.8c0-5.4-1.8-10.3-4.8-14.3h14.3V202.8z M145.1,359.8h180.8v9.5H145.1V359.8z
		 M325.9,350.3H145.1v-9.5h52.3c11.8,0,22.5-4.8,30.3-12.6c0,0,95.2-95.1,95.2-95.1c1.1-1.1,2.1-2.2,3-3.4L325.9,350.3z M240,302.5
		c0.2-1.5,0.2-3,0.2-4.5v-52.3h52.3c1.5,0,3-0.1,4.5-0.2L240,302.5z M344.9,374.1c0,7.9-6.4,14.3-14.3,14.3H140.3
		c-7.9,0-14.3-6.4-14.3-14.3V125.4c0-7.9,6.4-14.3,14.3-14.3h42.8v19h-42.8c-2.6,0-4.8,2.1-4.8,4.8v239.1c0,2.6,2.1,4.8,4.8,4.8
		h190.3c2.6,0,4.8-2.1,4.8-4.8V135c0-2.6-2.1-4.8-4.8-4.8h-42.8v-19h42.8c7.9,0,14.3,6.4,14.3,14.3V374.1z"/>
</g>
</svg>
