<?xml version="1.0" encoding="utf-8"?>
<!-- Generator: Adobe Illustrator 24.1.2, SVG Export Plug-In . SVG Version: 6.00 Build 0)  -->
<svg version="1.1" id="Capa_1" xmlns="http://www.w3.org/2000/svg" xmlns:xlink="http://www.w3.org/1999/xlink" x="0px" y="0px"
	 viewBox="0 0 469.3 469.3" style="enable-background:new 0 0 469.3 469.3;" xml:space="preserve">
<style type="text/css">
	.st0{fill:none;}
	.st1{fill:none;stroke:#0B4094;stroke-width:13;stroke-miterlimit:10;}
	.st2{fill:#0B4094;}
</style>
<line class="st0" x1="236" y1="-7957" x2="236" y2="8426"/>
<circle class="st1" cx="236" cy="234.7" r="220"/>
<line class="st0" x1="-7957" y1="228" x2="8426" y2="228"/>
<g>
	<path class="st2" d="M115,113v274.7c0,2.9,2.4,5.3,5.3,5.3H321c2.9,0,5.3-2.4,5.3-5.3V165.8c0-0.1-0.1-0.2-0.1-0.3
		c0-0.5-0.1-0.9-0.3-1.4c-0.1-0.2-0.1-0.3-0.2-0.5c-0.3-0.6-0.6-1.1-1.1-1.5l-52.8-52.8c-0.4-0.4-1-0.8-1.6-1.1
		c-0.2-0.1-0.3-0.1-0.5-0.2c-0.4-0.2-0.9-0.2-1.4-0.3c-0.1,0-0.2,0-0.3,0H120.3C117.3,107.7,115,110.1,115,113z M308.3,160.5h-34.8
		v-34.8L308.3,160.5z M125.5,118.3h137.4v47.6c0,2.9,2.4,5.3,5.3,5.3h47.6v211.3H125.5V118.3z"/>
	<path class="st2" d="M336.9,350.7v10.6h15.8c2.9,0,5.3-2.4,5.3-5.3V81.3c0-2.9-2.4-5.3-5.3-5.3H152c-2.9,0-5.3,2.4-5.3,5.3v15.8
		h10.6V86.6h190.2v264.2H336.9z"/>
	<path class="st2" d="M157.3,181.7H284v10.6H157.3V181.7z"/>
	<path class="st2" d="M157.3,150h42.3v10.6h-42.3V150z"/>
	<path class="st2" d="M157.3,213.4h84.5v10.6h-84.5V213.4z"/>
	<path class="st2" d="M252.3,213.4H284v10.6h-31.7V213.4z"/>
	<path class="st2" d="M157.3,245.1H284v10.6H157.3V245.1z"/>
	<path class="st2" d="M157.3,308.5H284V319H157.3V308.5z"/>
	<path class="st2" d="M204.8,276.8H284v10.6h-79.3V276.8z"/>
	<path class="st2" d="M157.3,276.8h37v10.6h-37V276.8z"/>
	<path class="st2" d="M157.3,340.2h21.1v10.6h-21.1V340.2z"/>
	<path class="st2" d="M188.9,340.2H284v10.6h-95.1V340.2z"/>
</g>
</svg>
