<?xml version="1.0" encoding="utf-8"?>
<!-- Generator: Adobe Illustrator 24.1.2, SVG Export Plug-In . SVG Version: 6.00 Build 0)  -->
<svg version="1.1" id="레이어_1" xmlns="http://www.w3.org/2000/svg" xmlns:xlink="http://www.w3.org/1999/xlink" x="0px"
	 y="0px" viewBox="0 0 62 60" style="enable-background:new 0 0 62 60;" xml:space="preserve">
<style type="text/css">
	.st0{fill:#445D97;}
	.st1{fill:#FFFFFF;}
</style>
<g>
	<path class="st0" d="M56.6,58.2c1.7,0,3.1-1.4,3.1-3.1v-50c0-1.7-1.4-3.1-3.1-3.1h-50c-1.7,0-3.1,1.4-3.1,3.1v50
		c0,1.7,1.4,3.1,3.1,3.1H56.6z"/>
	<path class="st1" d="M42.3,58.2V36.5h7.3l1.1-8.5h-8.4v-5.4c0-2.5,0.7-4.1,4.2-4.1l4.5,0v-7.6c-0.8-0.1-3.4-0.3-6.5-0.3
		c-6.5,0-10.9,4-10.9,11.2V28h-7.3v8.5h7.3v21.8H42.3z"/>
</g>
</svg>
