<?xml version="1.0" encoding="utf-8"?>
<!-- Generator: Adobe Illustrator 24.1.2, SVG Export Plug-In . SVG Version: 6.00 Build 0)  -->
<svg version="1.1" id="Capa_1" xmlns="http://www.w3.org/2000/svg" xmlns:xlink="http://www.w3.org/1999/xlink" x="0px" y="0px"
	 viewBox="0 0 469.3 469.3" style="enable-background:new 0 0 469.3 469.3;" xml:space="preserve">
<style type="text/css">
	.st0{fill:none;}
	.st1{fill:none;stroke:#0B4094;stroke-width:13;stroke-miterlimit:10;}
	.st2{fill:#0B4094;}
</style>
<line class="st0" x1="236" y1="-7957" x2="236" y2="8426"/>
<circle class="st1" cx="236" cy="234.7" r="220"/>
<line class="st0" x1="-7957" y1="228" x2="8426" y2="228"/>
<g id="XMLID_10_">
	<g>
		<path class="st2" d="M402.3,308.4c0-18.7-5.6-36.7-16.2-52.2c-7.6-11.1-17.4-20.4-28.8-27.2c13.4-12.7,21.8-30.6,21.8-50.4
			c0-38.3-31.2-69.5-69.5-69.5c-22.7,0-44,11.2-56.9,29.7c-3.3-0.5-6.6-0.7-10.1-0.7s-6.8,0.3-10.1,0.7
			c-12.9-18.5-34.2-29.7-57-29.7c-38.3,0-69.5,31.2-69.5,69.5c0,19.8,8.4,37.8,21.8,50.4c-11.4,6.9-21.2,16.1-28.8,27.2
			c-10.6,15.5-16.2,33.5-16.2,52.2V347h67v29h185.5v-29h67L402.3,308.4L402.3,308.4L402.3,308.4z M309.5,126.2
			c28.9,0,52.4,23.5,52.4,52.4s-23.5,52.4-52.4,52.4c-0.5,0-1,0-1.6,0c0-0.1,0.1-0.2,0.1-0.3c0.9-2.5,1.6-5.1,2.2-7.8
			c0-0.2,0.1-0.4,0.1-0.6c0.2-0.7,0.3-1.4,0.4-2.2c0.1-0.3,0.1-0.7,0.2-1c0.1-0.6,0.2-1.3,0.3-2c0.1-0.5,0.1-0.9,0.2-1.4
			c0.1-0.6,0.1-1.2,0.2-1.7c0.1-0.6,0.1-1.2,0.1-1.8c0-0.5,0.1-0.9,0.1-1.4c0-1,0.1-2,0.1-3c0-0.1,0-0.1,0-0.2c0,0,0-0.1,0-0.1
			c0-1,0-2.1-0.1-3.1c0-0.3,0-0.6,0-0.9c-0.1-0.9-0.1-1.7-0.2-2.6c0-0.2,0-0.4-0.1-0.6c-2.6-25.1-18.4-46.5-41.3-56.4
			C280.2,132.7,294.4,126.2,309.5,126.2z M224.4,158.3c0.2-0.1,0.3-0.1,0.5-0.2c0.5-0.2,1-0.4,1.6-0.5c0.4-0.1,0.8-0.3,1.2-0.4
			c0.3-0.1,0.6-0.2,0.9-0.3c0.5-0.1,1.1-0.3,1.6-0.4c4-1,8.1-1.5,12.3-1.5c4.3,0,8.4,0.5,12.4,1.5c0.5,0.1,1.1,0.3,1.6,0.4
			c0.3,0.1,0.6,0.2,0.9,0.3c0.4,0.1,0.8,0.2,1.2,0.4c0.5,0.2,1.1,0.4,1.6,0.5c0.2,0.1,0.3,0.1,0.5,0.2c17.5,6.5,30.6,22.1,33.6,41
			c0,0.2,0,0.3,0.1,0.5c0.1,0.6,0.2,1.3,0.2,1.9c0,0.2,0.1,0.5,0.1,0.7c0.1,0.6,0.1,1.2,0.1,1.8c0,0.3,0,0.5,0,0.8
			c0,0.8,0.1,1.5,0.1,2.3c0,0.1,0,0.1,0,0.2c0,0,0,0.1,0,0.1c0,0.7,0,1.5-0.1,2.2c0,0.2,0,0.5,0,0.7c0,0.7-0.1,1.4-0.2,2.1
			c0,0.3-0.1,0.5-0.1,0.8c-0.1,0.5-0.1,0.9-0.2,1.4c0,0.4-0.1,0.7-0.2,1.1c-0.1,0.5-0.2,1.1-0.3,1.6c-0.1,0.5-0.2,0.9-0.3,1.4
			c-0.1,0.3-0.1,0.6-0.2,0.8c-0.2,0.7-0.4,1.4-0.5,2.1c-0.1,0.3-0.2,0.5-0.2,0.8c-0.1,0.4-0.2,0.8-0.4,1.2c-0.1,0.3-0.2,0.6-0.3,0.9
			c-0.1,0.4-0.2,0.7-0.4,1.1c-0.2,0.6-0.5,1.2-0.7,1.8c-0.1,0.3-0.2,0.5-0.3,0.8c-0.2,0.5-0.4,1-0.7,1.4c0,0.1-0.1,0.1-0.1,0.2
			c-0.1,0.2-0.2,0.3-0.2,0.5c-0.3,0.5-0.5,1-0.8,1.5c-0.1,0.2-0.2,0.4-0.3,0.6c0,0,0,0,0,0c-0.3,0.5-0.6,1.1-0.9,1.6
			c-0.1,0.2-0.2,0.4-0.4,0.6c-0.3,0.6-0.7,1.1-1.1,1.6c-0.2,0.3-0.5,0.7-0.7,1c-0.2,0.3-0.4,0.6-0.6,0.8c-0.3,0.4-0.5,0.7-0.8,1.1
			c-0.2,0.2-0.4,0.5-0.6,0.7c-0.3,0.4-0.6,0.7-0.9,1.1c-0.2,0.2-0.4,0.4-0.6,0.6c-0.3,0.4-0.6,0.7-0.9,1.1c-0.2,0.2-0.4,0.4-0.6,0.6
			c-0.5,0.5-1,1.1-1.6,1.6c-0.3,0.3-0.6,0.6-1,0.9c-0.2,0.2-0.5,0.4-0.7,0.6c-0.4,0.3-0.8,0.7-1.1,1c-0.2,0.2-0.4,0.3-0.6,0.5
			c-0.5,0.4-0.9,0.8-1.4,1.1c-0.1,0.1-0.3,0.2-0.4,0.3c-8.7,6.5-19.5,10.3-31.2,10.3c-11.7,0-22.5-3.8-31.2-10.3
			c-0.1-0.1-0.3-0.2-0.4-0.3c-0.5-0.4-1-0.7-1.4-1.1c-0.2-0.2-0.4-0.3-0.6-0.5c-0.4-0.3-0.8-0.7-1.1-1c-0.2-0.2-0.5-0.4-0.7-0.6
			c-0.3-0.3-0.6-0.6-1-0.9c-0.5-0.5-1.1-1.1-1.6-1.6c-0.2-0.2-0.4-0.4-0.6-0.6c-0.3-0.3-0.6-0.7-0.9-1.1c-0.2-0.2-0.4-0.4-0.6-0.6
			c-0.3-0.4-0.6-0.7-0.9-1.1c-0.2-0.2-0.4-0.5-0.6-0.7c-0.3-0.4-0.5-0.7-0.8-1.1c-0.2-0.3-0.4-0.6-0.6-0.8c-0.2-0.3-0.5-0.7-0.7-1
			c-0.4-0.5-0.7-1.1-1.1-1.7c-0.1-0.2-0.2-0.4-0.4-0.6c-0.3-0.5-0.6-1.1-0.9-1.6c-0.1-0.2-0.2-0.4-0.3-0.6c-0.3-0.5-0.5-1-0.8-1.5
			c-0.1-0.2-0.2-0.4-0.3-0.6c0,0,0-0.1,0-0.1c-0.2-0.5-0.5-1-0.7-1.5c-0.1-0.2-0.2-0.5-0.3-0.7c-0.2-0.6-0.5-1.2-0.7-1.8
			c-0.1-0.3-0.2-0.7-0.4-1c-0.1-0.3-0.2-0.7-0.3-1c-0.1-0.4-0.2-0.7-0.4-1.1c-0.2-0.6-0.3-1.1-0.5-1.7c-0.1-0.4-0.2-0.8-0.3-1.2
			c-0.1-0.3-0.1-0.6-0.2-0.9c-0.1-0.4-0.2-0.8-0.2-1.2c-0.1-0.6-0.2-1.2-0.3-1.8c-0.1-0.3-0.1-0.7-0.1-1c-0.1-0.5-0.1-1-0.2-1.5
			c0-0.2-0.1-0.5-0.1-0.7c-0.1-0.7-0.1-1.5-0.2-2.2c0-0.2,0-0.4,0-0.6c0-0.8-0.1-1.6-0.1-2.4c0-0.8,0-1.7,0.1-2.5c0-0.2,0-0.5,0-0.7
			c0-0.6,0.1-1.3,0.1-1.9c0-0.2,0-0.4,0.1-0.6c0.1-0.7,0.2-1.3,0.3-2c0-0.1,0-0.3,0.1-0.4C193.7,180.4,206.9,164.8,224.4,158.3z
			 M123.1,178.5c0-28.9,23.5-52.4,52.4-52.4c15.1,0,29.3,6.6,39.1,17.6c-22.8,9.9-38.7,31.4-41.3,56.4c0,0.2,0,0.3,0,0.5
			c-0.1,0.9-0.2,1.8-0.2,2.7c0,0.3,0,0.5,0,0.8c0,1.1-0.1,2.1-0.1,3.2c0,1.1,0,2.2,0.1,3.3c0,0.4,0.1,0.9,0.1,1.3
			c0,0.6,0.1,1.3,0.1,1.9c0.1,0.6,0.1,1.1,0.2,1.7c0.1,0.5,0.1,1,0.2,1.4c0.1,0.6,0.2,1.3,0.3,1.9c0.1,0.4,0.1,0.7,0.2,1.1
			c0.1,0.7,0.3,1.4,0.4,2.1c0,0.2,0.1,0.5,0.2,0.7c0.6,2.6,1.3,5.1,2.2,7.6c0.1,0.2,0.1,0.3,0.2,0.5c-0.5,0-1,0-1.6,0
			C146.6,230.9,123.1,207.4,123.1,178.5z M164.1,287.9c-0.2,0.3-0.4,0.6-0.6,0.9c-0.4,0.6-0.8,1.3-1.2,1.9c-0.2,0.4-0.4,0.7-0.6,1.1
			c-0.3,0.6-0.7,1.2-1,1.8c-0.2,0.4-0.4,0.8-0.6,1.1c-0.3,0.6-0.6,1.2-0.9,1.8c-0.2,0.4-0.4,0.8-0.6,1.1c-0.3,0.6-0.6,1.3-0.9,1.9
			c-0.2,0.3-0.3,0.7-0.5,1c-0.3,0.8-0.7,1.5-1,2.3c-0.1,0.2-0.2,0.5-0.3,0.7c-0.4,1-0.8,2-1.1,3c-0.1,0.2-0.2,0.5-0.2,0.7
			c-0.3,0.8-0.5,1.6-0.8,2.4c-0.1,0.4-0.2,0.7-0.3,1.1c-0.2,0.7-0.4,1.3-0.6,2c-0.1,0.4-0.2,0.8-0.3,1.2c-0.2,0.7-0.3,1.3-0.5,2
			c-0.1,0.4-0.2,0.8-0.3,1.2c-0.1,0.7-0.3,1.3-0.4,2c-0.1,0.4-0.2,0.8-0.2,1.2c-0.1,0.7-0.3,1.5-0.4,2.2c-0.1,0.3-0.1,0.7-0.2,1
			c-0.2,1.1-0.3,2.1-0.4,3.2c0,0,0,0,0,0c-0.1,1-0.2,2-0.3,3H99.9v-21.5c0-29.4,16.9-55.8,43.4-68.3c9.6,5.1,20.6,8,32.2,8
			c3.4,0,6.7-0.2,10.1-0.7c0.5,0.7,1.1,1.5,1.6,2.2c0.2,0.2,0.4,0.5,0.6,0.7c0.5,0.7,1.1,1.4,1.7,2.1c0.2,0.3,0.5,0.5,0.7,0.8
			c0.5,0.6,1.1,1.2,1.6,1.8c0.3,0.3,0.6,0.6,0.9,0.9c0.5,0.5,1,1,1.5,1.5c0.2,0.2,0.4,0.4,0.6,0.6c-0.7,0.5-1.5,0.9-2.2,1.4
			c-0.1,0.1-0.2,0.2-0.4,0.2c-0.7,0.5-1.5,1-2.2,1.5c-0.2,0.2-0.5,0.3-0.7,0.5c-0.6,0.5-1.3,0.9-1.9,1.4c-0.2,0.1-0.4,0.3-0.6,0.4
			c-0.8,0.6-1.6,1.2-2.4,1.8c-0.2,0.1-0.3,0.3-0.5,0.4c-0.6,0.5-1.2,1-1.8,1.5c-0.2,0.2-0.5,0.4-0.7,0.6c-0.6,0.5-1.2,1.1-1.8,1.6
			c-0.2,0.1-0.3,0.3-0.5,0.4c-0.7,0.7-1.4,1.4-2.1,2.1c-0.2,0.2-0.4,0.4-0.5,0.6c-0.5,0.6-1.1,1.1-1.6,1.7c-0.2,0.2-0.4,0.4-0.6,0.7
			c-0.6,0.6-1.2,1.3-1.8,2c-0.1,0.1-0.2,0.2-0.3,0.3c-0.7,0.8-1.3,1.5-1.9,2.3c-0.2,0.2-0.3,0.4-0.5,0.7c-0.5,0.6-0.9,1.2-1.4,1.8
			c-0.2,0.2-0.4,0.5-0.5,0.7c-0.6,0.8-1.2,1.7-1.8,2.5C165.3,286,164.7,287,164.1,287.9z M166.9,358.8V347v-9.7c0-1,0-1.9,0.1-2.8
			c0-0.3,0-0.6,0.1-0.9c0-0.6,0.1-1.3,0.1-1.9c0-0.4,0.1-0.8,0.1-1.1c0-0.6,0.1-1.1,0.2-1.7c0-0.4,0.1-0.8,0.2-1.2
			c0.1-0.5,0.1-1,0.2-1.6c0.1-0.4,0.1-0.8,0.2-1.2c0.1-0.5,0.2-1,0.3-1.5c0.1-0.4,0.2-0.8,0.3-1.3c0.1-0.5,0.2-1,0.3-1.5
			c0.1-0.4,0.2-0.8,0.3-1.3c0.1-0.5,0.2-0.9,0.4-1.4c0.1-0.4,0.2-0.8,0.4-1.3c0.1-0.5,0.3-0.9,0.4-1.4c0.1-0.4,0.3-0.8,0.4-1.3
			c0.1-0.4,0.3-0.9,0.4-1.3c0.1-0.4,0.3-0.8,0.5-1.3c0.2-0.4,0.3-0.9,0.5-1.3c0.2-0.4,0.3-0.8,0.5-1.2c0.2-0.4,0.3-0.9,0.5-1.3
			c0.2-0.4,0.4-0.8,0.5-1.2c0.2-0.4,0.4-0.8,0.6-1.3c0.2-0.4,0.4-0.8,0.6-1.2c0.2-0.4,0.4-0.8,0.6-1.2c0.2-0.4,0.4-0.8,0.6-1.2
			c0.2-0.4,0.4-0.8,0.7-1.2c0.2-0.4,0.5-0.8,0.7-1.2c0.2-0.4,0.5-0.8,0.7-1.2c0.2-0.4,0.5-0.8,0.7-1.2c0.2-0.4,0.5-0.8,0.7-1.1
			c0.3-0.4,0.5-0.8,0.8-1.1c0.3-0.4,0.5-0.7,0.8-1.1c0.3-0.4,0.5-0.7,0.8-1.1c0.3-0.4,0.5-0.7,0.8-1.1c0.3-0.4,0.6-0.7,0.9-1.1
			c0.3-0.4,0.6-0.7,0.9-1.1c0.3-0.3,0.6-0.7,0.9-1c0.3-0.3,0.6-0.7,0.9-1c0.3-0.3,0.6-0.7,0.9-1c0.3-0.3,0.6-0.7,0.9-1
			c0.3-0.3,0.6-0.7,1-1c0.3-0.3,0.6-0.6,1-1c0.3-0.3,0.7-0.6,1-0.9c0.3-0.3,0.7-0.6,1-0.9c0.3-0.3,0.7-0.6,1-0.9
			c0.3-0.3,0.7-0.6,1.1-0.9c0.4-0.3,0.7-0.6,1.1-0.9c0.4-0.3,0.7-0.6,1.1-0.9c0.4-0.3,0.7-0.6,1.1-0.8c0.4-0.3,0.8-0.6,1.1-0.8
			c0.4-0.3,0.7-0.5,1.1-0.8c0.4-0.3,0.8-0.5,1.2-0.8c0.4-0.3,0.8-0.5,1.2-0.7c0.4-0.3,0.8-0.5,1.2-0.8c0.4-0.2,0.8-0.5,1.2-0.7
			c0.4-0.2,0.8-0.5,1.2-0.7c0.4-0.2,0.8-0.4,1.2-0.7c0.4-0.2,0.9-0.5,1.3-0.7c0.4-0.2,0.8-0.4,1.2-0.6c0.3-0.2,0.7-0.3,1-0.5
			c9.6,5.1,20.6,8,32.2,8c11.6,0,22.6-2.9,32.2-8c0.3,0.2,0.7,0.3,1,0.5c0.4,0.2,0.8,0.4,1.2,0.6c0.4,0.2,0.8,0.4,1.3,0.7
			c0.4,0.2,0.8,0.4,1.2,0.7c0.4,0.2,0.8,0.5,1.2,0.7c0.4,0.2,0.8,0.5,1.2,0.7c0.4,0.2,0.8,0.5,1.2,0.7c0.4,0.2,0.8,0.5,1.2,0.8
			c0.4,0.3,0.8,0.5,1.2,0.8c0.4,0.3,0.8,0.5,1.1,0.8c0.4,0.3,0.7,0.5,1.1,0.8c0.4,0.3,0.7,0.6,1.1,0.8c0.4,0.3,0.7,0.6,1.1,0.9
			c0.4,0.3,0.7,0.6,1.1,0.9c0.4,0.3,0.7,0.6,1,0.9c0.3,0.3,0.7,0.6,1,0.9c0.3,0.3,0.7,0.6,1,0.9c0.3,0.3,0.7,0.6,1,0.9
			c0.3,0.3,0.6,0.6,1,1c0.3,0.3,0.7,0.7,1,1c0.3,0.3,0.6,0.7,0.9,1c0.3,0.3,0.6,0.7,0.9,1c0.3,0.3,0.6,0.7,0.9,1
			c0.3,0.3,0.6,0.7,0.9,1c0.3,0.3,0.6,0.7,0.9,1c0.3,0.4,0.6,0.7,0.9,1.1c0.3,0.4,0.5,0.7,0.8,1.1c0.3,0.4,0.5,0.7,0.8,1.1
			c0.3,0.4,0.5,0.7,0.8,1.1c0.3,0.4,0.5,0.8,0.8,1.1c0.3,0.4,0.5,0.8,0.7,1.1c0.2,0.4,0.5,0.8,0.7,1.2c0.2,0.4,0.5,0.8,0.7,1.2
			c0.2,0.4,0.5,0.8,0.7,1.2c0.2,0.4,0.4,0.8,0.7,1.2c0.2,0.4,0.4,0.8,0.6,1.2c0.2,0.4,0.4,0.8,0.6,1.2c0.2,0.4,0.4,0.8,0.6,1.2
			c0.2,0.4,0.4,0.8,0.6,1.3c0.2,0.4,0.4,0.8,0.6,1.2c0.2,0.4,0.4,0.9,0.5,1.3c0.2,0.4,0.3,0.8,0.5,1.3c0.2,0.4,0.3,0.9,0.5,1.3
			c0.2,0.4,0.3,0.8,0.5,1.3c0.2,0.4,0.3,0.9,0.4,1.3c0.1,0.4,0.3,0.8,0.4,1.3c0.1,0.5,0.3,0.9,0.4,1.4c0.1,0.4,0.2,0.8,0.4,1.3
			c0.1,0.5,0.2,0.9,0.4,1.4c0.1,0.4,0.2,0.8,0.3,1.3c0.1,0.5,0.2,1,0.3,1.5c0.1,0.4,0.2,0.8,0.3,1.3c0.1,0.5,0.2,1,0.3,1.5
			c0.1,0.4,0.1,0.8,0.2,1.3c0.1,0.5,0.1,1,0.2,1.6c0.1,0.4,0.1,0.8,0.2,1.2c0.1,0.6,0.1,1.1,0.2,1.7c0,0.4,0.1,0.8,0.1,1.1
			c0,0.6,0.1,1.3,0.1,1.9c0,0.3,0,0.6,0.1,0.9c0,0.9,0.1,1.9,0.1,2.8v9.7v11.8L166.9,358.8L166.9,358.8z M334.9,329.9
			c-0.2-2.1-0.4-4.2-0.7-6.2c0-0.3-0.1-0.7-0.2-1c-0.1-0.7-0.2-1.5-0.4-2.2c-0.1-0.4-0.2-0.8-0.2-1.2c-0.1-0.7-0.3-1.4-0.4-2
			c-0.1-0.4-0.2-0.8-0.3-1.2c-0.2-0.7-0.3-1.3-0.5-2c-0.1-0.4-0.2-0.8-0.3-1.2c-0.2-0.7-0.4-1.4-0.6-2c-0.1-0.4-0.2-0.7-0.3-1.1
			c-0.3-0.8-0.5-1.6-0.8-2.4c-0.1-0.2-0.1-0.4-0.2-0.7c-0.4-1-0.7-2-1.1-3.1c-0.1-0.2-0.2-0.4-0.3-0.6c-0.3-0.8-0.6-1.6-1-2.4
			c-0.2-0.3-0.3-0.7-0.5-1c-0.3-0.6-0.6-1.3-0.9-1.9c-0.2-0.4-0.4-0.7-0.5-1.1c-0.3-0.6-0.6-1.2-0.9-1.8c-0.2-0.4-0.4-0.8-0.6-1.1
			c-0.3-0.6-0.7-1.2-1-1.8c-0.2-0.4-0.4-0.7-0.6-1.1c-0.4-0.6-0.8-1.3-1.2-1.9c-0.2-0.3-0.4-0.6-0.5-0.9c-0.6-0.9-1.2-1.8-1.8-2.8
			c-0.6-0.8-1.2-1.7-1.8-2.5c-0.2-0.2-0.4-0.5-0.5-0.7c-0.5-0.6-0.9-1.2-1.4-1.8c-0.2-0.2-0.3-0.4-0.5-0.7c-0.6-0.8-1.3-1.6-1.9-2.3
			c-0.1-0.1-0.2-0.2-0.3-0.3c-0.6-0.7-1.2-1.3-1.8-2c-0.2-0.2-0.4-0.4-0.6-0.7c-0.5-0.6-1.1-1.1-1.6-1.7c-0.2-0.2-0.4-0.4-0.5-0.5
			c-0.7-0.7-1.4-1.4-2.2-2.1c-0.2-0.1-0.3-0.3-0.5-0.4c-0.6-0.6-1.2-1.1-1.8-1.6c-0.2-0.2-0.5-0.4-0.7-0.6c-0.6-0.5-1.2-1-1.8-1.5
			c-0.2-0.1-0.3-0.3-0.5-0.4c-0.8-0.6-1.6-1.2-2.4-1.8c-0.2-0.2-0.4-0.3-0.6-0.4c-0.6-0.5-1.3-0.9-1.9-1.4c-0.2-0.2-0.5-0.4-0.7-0.5
			c-0.7-0.5-1.4-1-2.2-1.4c-0.1-0.1-0.3-0.2-0.4-0.2c-0.7-0.5-1.5-0.9-2.2-1.4c0.2-0.2,0.4-0.4,0.6-0.6c0.5-0.5,1.1-1,1.6-1.6
			c0.3-0.3,0.6-0.6,0.9-0.9c0.6-0.6,1.1-1.2,1.6-1.8c0.2-0.3,0.5-0.5,0.7-0.8c0.6-0.7,1.1-1.4,1.7-2.1c0.2-0.2,0.4-0.5,0.5-0.7
			c0.6-0.7,1.1-1.5,1.6-2.2c3.3,0.5,6.7,0.7,10.1,0.7c11.6,0,22.6-2.9,32.2-8c26.5,12.5,43.4,38.9,43.4,68.3v21.5H334.9z"/>
	</g>
</g>
</svg>
