<?xml version="1.0" encoding="utf-8"?>
<!-- Generator: Adobe Illustrator 24.1.2, SVG Export Plug-In . SVG Version: 6.00 Build 0)  -->
<svg version="1.1" id="레이어_1" xmlns="http://www.w3.org/2000/svg" xmlns:xlink="http://www.w3.org/1999/xlink" x="0px"
	 y="0px" viewBox="0 0 62 60" style="enable-background:new 0 0 62 60;" xml:space="preserve">
<style type="text/css">
	.st0{clip-path:url(#SVGID_2_);}
	.st1{clip-path:url(#SVGID_4_);}
	.st2{fill:#FFFFFF;}
</style>
<g>
	<g>
		<defs>
			<path id="SVGID_1_" d="M44.5,2.1H31.3H18h-1.9c-3.5,0-6.7,1.4-9,3.7l0,0C6,7,5.1,8.3,4.5,9.7l0,0c-0.7,1.6-1.1,3.3-1.1,5.2l0,0v1
				v7.4v12v8.4v1.8c0,2.2,0.5,4.2,1.5,5.9l0,0c0.6,1.1,1.4,2.2,2.3,3.1l0,0c2.3,2.3,5.5,3.7,9,3.7l0,0H18h13.2h13.2h2.3
				c3.5,0,6.7-1.4,9-3.7l0,0c0.9-0.9,1.7-1.9,2.3-3.1l0,0c0.9-1.8,1.5-3.8,1.5-5.9l0,0v-1.8v-8.4v-12v-7.4v-1c0-1.8-0.4-3.6-1.1-5.2
				l0,0c-0.6-1.4-1.5-2.7-2.6-3.8l0,0c-2.3-2.3-5.5-3.7-9-3.7l0,0H44.5z"/>
		</defs>
		<clipPath id="SVGID_2_">
			<use xlink:href="#SVGID_1_"  style="overflow:visible;"/>
		</clipPath>
		<g class="st0">
			<defs>
				<rect id="SVGID_3_" x="4" y="1.4" width="56.1" height="56.1"/>
			</defs>
			<clipPath id="SVGID_4_">
				<use xlink:href="#SVGID_3_"  style="overflow:visible;"/>
			</clipPath>
			<g class="st1">
				<defs>
					<rect id="SVGID_5_" x="4" y="1.4" width="56.1" height="56.1"/>
				</defs>
				<clipPath id="SVGID_6_">
					<use xlink:href="#SVGID_5_"  style="overflow:visible;"/>
				</clipPath>
				<g transform="matrix(1 0 0 1 2.384186e-07 0)" style="clip-path:url(#SVGID_6_);">
					
						<image style="overflow:visible;" width="80" height="80" xlink:href="DD96FEFD.jpg"  transform="matrix(0.7185 0 0 0.7185 2.8774 1.4012)">
					</image>
				</g>
			</g>
		</g>
	</g>
	<path class="st2" d="M40.1,9.7H22.7c-6.6,0-11.9,5.3-11.9,11.9V39c0,6.6,5.3,11.9,11.9,11.9h17.4C46.7,50.9,52,45.5,52,39V21.6
		C52,15,46.7,9.7,40.1,9.7 M48.2,39.3c0,4.4-3.5,7.9-7.9,7.9H22.5c-4.4,0-7.9-3.5-7.9-7.9V21.5c0-4.4,3.5-7.9,7.9-7.9h17.8
		c4.4,0,7.9,3.5,7.9,7.9V39.3z"/>
	<path class="st2" d="M31.4,19.7c-5.9,0-10.7,4.8-10.7,10.7c0,5.9,4.8,10.7,10.7,10.7c5.9,0,10.7-4.8,10.7-10.7
		C42.1,24.5,37.3,19.7,31.4,19.7 M31.4,37.3c-3.8,0-6.9-3.1-6.9-6.9c0-3.8,3.1-6.9,6.9-6.9c3.8,0,6.9,3.1,6.9,6.9
		C38.3,34.2,35.2,37.3,31.4,37.3"/>
	<path class="st2" d="M42.4,16.8c-1.4,0-2.5,1.1-2.5,2.5c0,1.4,1.1,2.5,2.5,2.5c1.4,0,2.5-1.1,2.5-2.5
		C44.9,17.9,43.8,16.8,42.4,16.8"/>
</g>
</svg>
