<?xml version="1.0" encoding="utf-8"?>
<!-- Generator: Adobe Illustrator 24.1.2, SVG Export Plug-In . SVG Version: 6.00 Build 0)  -->
<svg version="1.1" id="레이어_1" xmlns="http://www.w3.org/2000/svg" xmlns:xlink="http://www.w3.org/1999/xlink" x="0px"
	 y="0px" viewBox="0 0 256 74" style="enable-background:new 0 0 256 74;" xml:space="preserve">
<style type="text/css">
	.st0{fill:#001960;}
	.st1{fill:none;}
	.st2{fill:url(#SVGID_1_);}
	.st3{fill:url(#SVGID_2_);}
	.st4{fill:#FDDA5D;}
	.st5{fill:#DEB73F;}
	.st6{fill:#D29327;}
	.st7{fill:url(#SVGID_3_);}
	.st8{fill:#FFFFFF;}
	.st9{fill:url(#SVGID_4_);}
	.st10{fill:#000044;}
	.st11{fill:#FFD800;}
	.st12{fill:url(#SVGID_5_);}
	.st13{fill:url(#SVGID_6_);}
	.st14{fill:url(#SVGID_7_);}
	.st15{fill:url(#SVGID_8_);}
	.st16{fill:url(#SVGID_9_);}
	.st17{fill:url(#SVGID_10_);}
	.st18{fill:url(#SVGID_11_);}
	.st19{fill:url(#SVGID_12_);}
	.st20{fill:url(#SVGID_13_);}
	.st21{fill:url(#SVGID_14_);}
	.st22{fill:url(#SVGID_15_);}
	.st23{fill:url(#SVGID_16_);}
	.st24{fill:url(#SVGID_17_);}
	.st25{fill:url(#SVGID_18_);}
	.st26{fill:url(#SVGID_19_);}
	.st27{fill:url(#SVGID_20_);}
	.st28{fill:url(#SVGID_21_);}
	.st29{fill:#E49C00;}
	.st30{fill:#FFF4CC;}
	.st31{fill:url(#SVGID_22_);}
</style>
<g>
	<g>
		<path class="st0" d="M17.3,16.9c0,0.1,0,25.6,0,25.6c0,1.5,1.1,4.8,2.6,8.2c1.1,2.4,3.4,6.9,6.3,10c2.6,2.7,5.7,5.1,9.4,7.4
			c3.7,2.2,6,4.9,6.5,5.5c0.5-0.6,2.9-3.3,6.5-5.5c3.7-2.2,6.8-4.6,9.4-7.4c3-3.1,5.3-7.6,6.3-10c1.5-3.4,2.6-6.7,2.6-8.2
			c0,0,0-25.5,0-25.6C66.9,16.8,42.3,0.8,42.1,0.7C42,0.8,17.4,16.8,17.3,16.9z"/>
		<path class="st1" d="M17.3,16.9c0,0.1,0,25.6,0,25.6c0,1.5,1.1,4.8,2.6,8.2c1.1,2.4,3.4,6.9,6.3,10c2.6,2.7,5.7,5.1,9.4,7.4
			c3.7,2.2,6,4.9,6.5,5.5c0.5-0.6,2.9-3.3,6.5-5.5c3.7-2.2,6.8-4.6,9.4-7.4c3-3.1,5.3-7.6,6.3-10c1.5-3.4,2.6-6.7,2.6-8.2
			c0,0,0-25.5,0-25.6C66.9,16.8,42.3,0.8,42.1,0.7C42,0.8,17.4,16.8,17.3,16.9z"/>
		
			<radialGradient id="SVGID_1_" cx="53.3015" cy="91.9572" r="53.4388" gradientTransform="matrix(0.8 0 0 0.8 -12.9789 -57.4598)" gradientUnits="userSpaceOnUse">
			<stop  offset="0" style="stop-color:#FDE6A8"/>
			<stop  offset="0.4607" style="stop-color:#FFD800"/>
			<stop  offset="1" style="stop-color:#E49C00"/>
		</radialGradient>
		<path class="st2" d="M65.7,17.8l0.3-0.1v-0.1C64.9,16.8,43.4,2.8,42.1,2c-1.2,0.8-22.8,14.8-23.8,15.5v0.1c0,2.2,0,24.9,0,24.9
			c0,2.5,3.7,12.4,8.6,17.4c2.6,2.7,5.6,5,9.2,7.2c2.8,1.7,4.8,3.6,6,4.8l0,0c0,0,0,0,0,0l0,0h0h0v0c1.1-1.2,3.2-3.1,6-4.8
			c3.6-2.2,6.6-4.5,9.2-7.2c4.9-5.1,8.6-15,8.6-17.4c0,0,0-22.8,0-24.9L65.7,17.8l0,0.3L65.7,17.8L65.7,17.8z"/>
		<linearGradient id="SVGID_2_" gradientUnits="userSpaceOnUse" x1="31.2454" y1="20.1068" x2="44.9097" y2="37.2451">
			<stop  offset="0" style="stop-color:#002F81"/>
			<stop  offset="1" style="stop-color:#001960"/>
		</linearGradient>
		<path class="st3" d="M20.1,18.6c0,2.7,0,24.1,0,24.1c0,0.7,0.7,3.4,2.3,7c1,2.2,3.1,6.4,5.8,9.2c2.5,2.6,5.4,4.8,8.8,6.9
			c2.1,1.3,3.8,2.7,5.1,3.9c1.3-1.2,3-2.6,5.1-3.9c3.5-2.1,6.4-4.3,8.8-6.9c2.7-2.8,4.8-7,5.8-9.2c1.7-3.7,2.3-6.4,2.3-7
			c0,0,0-21.4,0-24.1C60,15.9,46.7,7.2,42.1,4.3C39.6,5.9,21.9,17.4,20.1,18.6z"/>
		<path class="st4" d="M18.3,17.5c0,0,0,0.1,0,0.1l0.2,0.1L42.1,2.5V2l0,0C40.9,2.8,19.4,16.8,18.3,17.5z"/>
		<path class="st5" d="M65.7,17.8l0.3-0.1c0,0,0-0.1,0-0.1C64.9,16.8,43.4,2.8,42.1,2v0.4L65.7,17.8z"/>
		<g>
			<polygon class="st4" points="42.1,3.7 42.1,3.7 42.1,4.3 			"/>
			<path class="st6" d="M64.3,18.7l0.4-0.3c0,0,0,0,0,0C64.4,18.2,42.6,4,42.1,3.7v0.6C42.5,4.5,64,18.5,64.3,18.7z"/>
			<path class="st6" d="M19.5,18.4C19.5,18.4,19.5,18.4,19.5,18.4l0.4,0.3c0.3-0.2,21.8-14.2,22.2-14.4V3.7l0,0
				C41.7,4,19.9,18.2,19.5,18.4z"/>
			<path class="st4" d="M37,66.1c-3.5-2.1-6.4-4.4-8.9-6.9C23.6,54.4,20,45.1,20,42.8c0,0,0-23.8,0-24.2l-0.4-0.3
				c0,0.8,0,24.4,0,24.4c0,1,0.8,3.8,2.4,7.3c1,2.3,3.2,6.5,5.9,9.3c2.5,2.6,5.4,4.9,8.9,7c1.9,1.1,3.7,2.5,5.3,4.1l0,0V70
				C40.5,68.5,38.8,67.1,37,66.1z"/>
			<linearGradient id="SVGID_3_" gradientUnits="userSpaceOnUse" x1="29.5632" y1="48.5192" x2="25.6842" y2="24.2395">
				<stop  offset="0" style="stop-color:#CA8200"/>
				<stop  offset="0.3" style="stop-color:#E1A504"/>
				<stop  offset="1" style="stop-color:#CA8200"/>
			</linearGradient>
			<path class="st7" d="M37,66.1c-3.5-2.1-6.4-4.4-8.9-6.9C23.6,54.4,20,45.1,20,42.8c0,0,0-23.8,0-24.2l-0.4-0.3
				c0,0.8,0,24.4,0,24.4c0,1,0.8,3.8,2.4,7.3c1,2.3,3.2,6.5,5.9,9.3c2.5,2.6,5.4,4.9,8.9,7c1.9,1.1,3.7,2.5,5.3,4.1l0,0V70
				C40.5,68.5,38.8,67.1,37,66.1z"/>
			<path class="st4" d="M64.3,42.8c0,2.2-3.6,11.6-8.2,16.3c-2.5,2.6-5.4,4.8-8.9,6.9c-1.8,1.1-3.5,2.4-5.1,4v0.5
				c1.6-1.6,3.4-3,5.3-4.1c3.5-2.1,6.4-4.4,8.9-7c2.7-2.8,4.9-7,5.9-9.3c1.6-3.5,2.4-6.3,2.4-7.3c0,0,0-23.5,0-24.4l-0.4,0.3
				C64.3,19,64.3,42.8,64.3,42.8z"/>
		</g>
		<g>
			<path class="st8" d="M34,12.3h1c0.6,0,0.8,0.1,1,0.2c0.4,0.2,0.5,0.5,0.5,1c0,0.5-0.2,0.9-0.6,1.1c-0.2,0.1-0.3,0.1-0.7,0.1h-0.4
				v1.4H34V12.3z M34.8,12.9v1.2h0.4c0.3,0,0.4,0,0.5-0.2c0.1-0.1,0.1-0.2,0.1-0.4c0-0.4-0.2-0.6-0.5-0.6H34.8z"/>
			<path class="st8" d="M38.5,12.3c1,0,1.6,0.7,1.6,1.9c0,0.8-0.3,1.5-0.8,1.8c-0.2,0.1-0.4,0.2-0.7,0.2c-0.6,0-0.9-0.2-1.2-0.5
				c-0.3-0.4-0.4-0.8-0.4-1.4c0-0.8,0.3-1.5,0.8-1.8C37.9,12.4,38.2,12.3,38.5,12.3z M38.5,12.9c-0.3,0-0.5,0.1-0.6,0.3
				c-0.1,0.2-0.2,0.6-0.2,1c0,0.6,0.1,1,0.3,1.2c0.1,0.1,0.3,0.1,0.4,0.1c0.5,0,0.7-0.4,0.7-1.4c0-0.4,0-0.7-0.1-0.9
				C39.1,13.2,38.9,12.9,38.5,12.9z"/>
			<path class="st8" d="M40.6,12.3h0.8v3.1h1.3l-0.1,0.6h-2V12.3z"/>
			<path class="st8" d="M43.2,12.3H44v3.7h-0.8V12.3z"/>
			<path class="st8" d="M47.1,12.6l-0.3,0.5c-0.2-0.1-0.4-0.2-0.6-0.2c-0.3,0-0.5,0.1-0.6,0.3c-0.1,0.2-0.2,0.5-0.2,1
				c0,0.5,0,0.8,0.2,1c0.2,0.3,0.4,0.4,0.7,0.4c0.2,0,0.4-0.1,0.6-0.2c0,0,0,0,0.1-0.1l0.3,0.5c-0.3,0.2-0.6,0.4-1,0.4
				c-0.5,0-0.9-0.2-1.2-0.5c-0.3-0.3-0.5-0.8-0.5-1.3c0-0.5,0.1-0.8,0.3-1.2c0.3-0.5,0.8-0.9,1.4-0.9C46.6,12.3,46.9,12.4,47.1,12.6
				z"/>
			<path class="st8" d="M47.7,12.3h2.1L49.8,13h-1.3v0.9h1.1v0.6h-1.1v1h1.4v0.6h-2.2V12.3z"/>
		</g>
		<g>
			<path class="st8" d="M45,26.1c0,1,0.9,1.9,2,1.9c1.1,0,2.1-0.8,2.1-1.9c0-1-0.9-1.9-2.1-1.9C45.9,24.3,45,25.1,45,26.1z
				 M46.2,26.1c0-0.6,0.4-1,0.8-1c0.5,0,0.8,0.4,0.8,1c0,0.6-0.4,1-0.8,1C46.6,27.1,46.2,26.7,46.2,26.1z"/>
			<path class="st8" d="M48.2,19.8c0,0.1,0,1.2,0,1.2h-1.4l0-0.3v-0.4c0,0-3.3,0-3.4,0c0,0.1,0,0.8,0,0.9c0.1,0,2.1,0,2.1,0v0.2
				c0,0.6-0.2,1-0.6,1.5c-0.4,0.5-1,0.7-1.7,0.8c0,0,0.6,0.7,0.6,0.7c0.7-0.1,1.4-0.4,2.1-1.1c0.3-0.3,0.6-0.8,0.8-1.3l1.6,0h0v0.6
				c0,0-1.4,0-1.5,0c0,0.1,0,0.7,0,0.8c0.1,0,1.5,0,1.5,0s0,0.8,0,0.9c0.1,0,1.1,0,1.2,0c0-0.1,0-4.2,0-4.3
				C49.3,19.8,48.2,19.8,48.2,19.8z"/>
			<path class="st8" d="M27.2,19.6c0,0.1,0,1.2,0,1.2s-1.5,0-1.6,0c0,0.1,0,0.8,0,0.9c0.1,0,0.7,0,0.7,0l0,0.1
				c-0.1,0.3-0.2,0.6-0.2,0.9c0,1,0.8,1.8,1.8,1.8c1,0,1.8-0.8,1.8-1.8c0-0.3-0.1-0.6-0.2-0.9l0-0.1c0,0,0.5,0,0.6,0
				c0-0.1,0-0.8,0-0.9c-0.1,0-1.5,0-1.5,0s0-1.1,0-1.2C28.4,19.6,27.3,19.6,27.2,19.6z M27.3,22.6c0-0.5,0.3-0.9,0.6-0.9
				c0.3,0,0.6,0.4,0.6,0.9c0,0.5-0.3,1-0.6,1C27.6,23.6,27.3,23.1,27.3,22.6z"/>
			<path class="st8" d="M32,19.8c0,0.1,0,2.4,0,2.4h-0.6c0,0,0-2.3,0-2.4c-0.1,0-1,0-1.1,0c0,0.1,0,7.9,0,8c0.1,0,1,0,1.1,0
				c0-0.1,0-4.7,0-4.7H32c0,0,0,4.6,0,4.7c0.1,0,1,0,1.1,0c0-0.1,0-7.9,0-8C32.9,19.8,32,19.8,32,19.8z"/>
			<path class="st8" d="M39.4,19.8c0,0.1,0,4.2,0,4.3c0.1,0,1.1,0,1.2,0c0-0.1,0-0.9,0-0.9s1.1,0,1.1,0c0-0.1,0-0.7,0-0.8
				c-0.1,0-1.1,0-1.1,0v-0.7c0,0,1.1,0,1.1,0c0-0.1,0-0.7,0-0.8c-0.1,0-1.1,0-1.1,0s0-0.9,0-0.9C40.5,19.8,39.5,19.8,39.4,19.8z"/>
			<path class="st8" d="M36.2,26.1c0,1,0.9,1.9,2.1,1.9s2.1-0.8,2.1-1.9c0-1-0.9-1.9-2.1-1.9S36.2,25.1,36.2,26.1z M37.4,26.1
				c0-0.6,0.4-1,0.9-1c0.5,0,0.9,0.4,0.9,1c0,0.6-0.4,1-0.9,1C37.8,27.1,37.4,26.7,37.4,26.1z"/>
			<path class="st8" d="M34.5,21.9c0,1,0.9,1.9,2,1.9c1.1,0,2-0.8,2-1.9c0-1-0.9-1.8-2-1.8C35.4,20,34.5,20.8,34.5,21.9z M35.7,21.9
				c0-0.5,0.4-1,0.8-1c0.4,0,0.8,0.5,0.8,1c0,0.5-0.4,1-0.8,1C36.1,22.9,35.7,22.4,35.7,21.9z"/>
			<path class="st8" d="M56.2,19.8c0,0.1,0,4.2,0,4.3c0.1,0,1.1,0,1.2,0c0-0.1,0-1.8,0-1.8s0.9,0,1,0c0-0.1,0-0.8,0-0.9
				c-0.1,0-1,0-1,0s0-1.5,0-1.6C57.3,19.8,56.3,19.8,56.2,19.8z"/>
			<path class="st8" d="M52.6,19.6c0,0.1,0,1,0,1s-1.3,0-1.4,0c0,0.1,0,0.8,0,0.9c0.1,0,1.4,0,1.4,0v0c0,0.6-0.3,1-0.6,1.2
				c-0.3,0.3-0.7,0.5-1.1,0.5c0,0,0.4,0.4,0.4,0.4l0.2,0.3c0.4-0.1,1.1-0.4,1.6-1.2c0,0,0.1-0.1,0.1-0.1c0,0,0.1,0.1,0.1,0.1
				c0.4,0.7,1.2,1.2,1.6,1.2c0,0,0.6-0.7,0.6-0.7c-0.4,0-0.7-0.1-1.1-0.5c-0.2-0.2-0.6-0.6-0.6-1.2v0c0,0,1.3,0,1.4,0
				c0-0.1,0-0.8,0-0.9c-0.1,0-1.4,0-1.4,0s0-0.9,0-1C53.8,19.6,52.7,19.6,52.6,19.6z"/>
			<path class="st8" d="M52.3,24.5c0,0.1,0,0.6,0,0.7c0.1,0,3.9,0,3.9,0v0.6c0,0-3.8,0-3.9,0c0,0.1,0,1.3,0,1.3
				c0,0.5,0.2,0.7,0.7,0.7c0,0,4.5,0,4.6,0c0-0.1,0-0.6,0-0.7c-0.1,0-3.8,0-3.8,0c-0.1,0-0.1-0.1-0.1-0.1v-0.5h3.8
				c0.1,0,0.1,0,0.1-0.1v-1.8c0-0.1,0-0.1,0-0.1C57.4,24.5,52.4,24.5,52.3,24.5z"/>
		</g>
		<linearGradient id="SVGID_4_" gradientUnits="userSpaceOnUse" x1="35.3182" y1="70.047" x2="-2.0377" y2="-17.5958">
			<stop  offset="0" style="stop-color:#FEDA5D"/>
			<stop  offset="1" style="stop-color:#996100"/>
		</linearGradient>
		<path class="st9" d="M42.1,71.7l-0.4-0.4c-1.1-1.1-3-2.8-5.4-4.3c-3.6-2.2-6.6-4.5-9.1-7.1c-2.8-2.9-5-7.2-6.1-9.5
			c-1.5-3.2-2.5-6.4-2.5-7.7V18.1l0-0.3l-0.2-0.1c0,2.2,0,24.9,0,24.9c0,2.5,3.7,12.4,8.6,17.4c2.6,2.7,5.6,5,9.2,7.2
			c2.8,1.7,4.8,3.6,6,4.8c0,0,0,0,0,0V71.7L42.1,71.7z"/>
		<path class="st6" d="M42.1,71.7l0.4-0.4c1.1-1.1,3-2.8,5.4-4.3c3.6-2.2,6.6-4.5,9.1-7.1c2.8-2.9,5-7.2,6.1-9.5
			c1.5-3.2,2.5-6.4,2.5-7.7V18.1l0-0.3l0.3-0.1c0,2.2,0,24.9,0,24.9c0,2.5-3.7,12.4-8.6,17.4c-2.6,2.7-5.6,5-9.2,7.2
			c-2.8,1.7-4.8,3.6-6,4.8c0,0,0,0,0,0V71.7L42.1,71.7z"/>
		<path class="st10" d="M42.1,4.3C41.8,4.5,20.2,18.5,20,18.7c0,0.3,0,24.2,0,24.2c0,2.2,3.6,11.6,8.2,16.3c2.5,2.6,5.4,4.8,8.9,6.9
			c1.8,1.1,3.5,2.4,5.1,4c1.6-1.5,3.3-2.9,5.1-4c3.5-2.1,6.4-4.3,8.9-6.9c4.5-4.7,8.2-14.1,8.2-16.3c0,0,0-23.8,0-24.2
			C64,18.5,42.5,4.5,42.1,4.3z M64,42.8c0,2.2-3.6,11.4-8.1,16.1c-2.5,2.5-5.3,4.8-8.8,6.9c-1.7,1-3.4,2.3-5,3.8
			c-1.6-1.5-3.3-2.8-5-3.8c-3.5-2.1-6.3-4.3-8.8-6.9c-4.5-4.7-8.1-13.9-8.1-16.1c0,0,0-23.7,0-24c0.2-0.2,21.6-14,21.9-14.2
			C44,5.8,62.3,17.7,64,18.8C64,19.1,64,42.8,64,42.8z"/>
		<g>
			<path class="st11" d="M42.1,40c-4.6,0-8.3,3.7-8.3,8.3c0,4.6,3.7,8.3,8.3,8.3c4.6,0,8.3-3.7,8.3-8.3C50.4,43.7,46.7,40,42.1,40z"
				/>
			<linearGradient id="SVGID_5_" gradientUnits="userSpaceOnUse" x1="29.3607" y1="47.1533" x2="33.6713" y2="47.1533">
				<stop  offset="0" style="stop-color:#FDE6A8"/>
				<stop  offset="0.4607" style="stop-color:#FFD800"/>
				<stop  offset="1" style="stop-color:#E49C00"/>
			</linearGradient>
			<path class="st12" d="M29.4,48c0,0,1.3,1.2,3.8,0.7c0-0.1,0-0.3,0-0.4c0-1,0.2-2,0.5-2.9C32.5,46.6,31,47.6,29.4,48z"/>
			<path class="st11" d="M28.9,49.3c0.3,2.4,0.9,4.5,1.7,6.3c0.2,0.3,0.4,0.3,0.5,0.3c2.3-0.3,3.5-1.5,4-2c-1-1.3-1.7-2.9-1.9-4.6
				c-2.6,0.6-4.4-0.6-4.4-0.6c0,0.1,0,0.2,0,0.4C28.9,49.2,28.9,49.2,28.9,49.3z"/>
			<path class="st11" d="M35.8,62.1c1.6-1.3,2.6-4.6,2.8-5.5c-1.1-0.5-2.2-1.2-3-2.1c-1.5,1.6-3.3,2-4.4,2.2c1.2,2.2,2.6,4,4.1,5.4
				C35.5,62.2,35.7,62.1,35.8,62.1z"/>
			<linearGradient id="SVGID_6_" gradientUnits="userSpaceOnUse" x1="25.9125" y1="44.3234" x2="35.872" y2="44.3234">
				<stop  offset="0" style="stop-color:#FDE6A8"/>
				<stop  offset="0.4607" style="stop-color:#FFD800"/>
				<stop  offset="1" style="stop-color:#E49C00"/>
			</linearGradient>
			<path class="st13" d="M35.2,42.7c0.2-0.3,0.5-0.7,0.6-1c-0.5-0.1-0.9-0.2-1.4-0.3c-0.1,0-0.2-0.1-0.3-0.1c-2,1.6-4.9,4.1-8.3,4.9
				c0.1,0.1,1.4,2,4.2,1c1.7-0.7,3.4-2.1,4.6-3.7C34.9,43.1,35,42.9,35.2,42.7z"/>
			<path class="st11" d="M48.5,62.1c0.1,0.1,0.3,0.2,0.5-0.1c1.5-1.4,2.9-3.2,4.1-5.4c-1.1-0.1-2.9-0.6-4.4-2.2
				c-0.8,0.9-1.9,1.6-3,2.2C45.9,57.4,46.9,60.7,48.5,62.1z"/>
			<path class="st11" d="M42.9,57.2c0,0.2,0,0.4,0,0.7c0,1.9,0.1,7.2,0.3,8.2c0,0,2.3-1,4.9-3.3c-0.7-0.5-2-2-3.1-6
				C44.4,57,43.7,57.2,42.9,57.2z"/>
			<path class="st11" d="M53.6,55.6c0.8-1.8,1.5-4,1.8-6.4c0,0,0-0.1,0-0.1c0-0.1,0-0.2,0-0.4c0,0-1.8,1.1-4.4,0.6
				c-0.2,1.7-0.9,3.3-1.9,4.6c0.5,0.5,1.7,1.7,4,2C53.2,55.9,53.4,55.9,53.6,55.6z"/>
			<path class="st11" d="M41,66.1C41,66.1,41,66.1,41,66.1c0.3-0.9,0.3-6.2,0.3-8.2c0-0.3,0-0.5,0-0.7c-0.7-0.1-1.4-0.2-2.1-0.4
				c-1.2,4-2.5,5.5-3.1,6C38.7,65.1,41,66.1,41,66.1L41,66.1z"/>
			<linearGradient id="SVGID_7_" gradientUnits="userSpaceOnUse" x1="6.5136" y1="33.756" x2="27.6322" y2="33.756">
				<stop  offset="0" style="stop-color:#FDE6A8"/>
				<stop  offset="0.4607" style="stop-color:#FFD800"/>
				<stop  offset="1" style="stop-color:#E49C00"/>
			</linearGradient>
			<path class="st14" d="M27.6,38.2c-0.2-0.1-0.5-0.3-0.7-0.5c-2.1-1.4-3.3-2.6-3.3-2.6c-8.2-2.2-17.1-5.8-17.1-5.8s0,7.5,6.7,8.6
				C18,38.2,24,38.4,27.6,38.2z"/>
			<linearGradient id="SVGID_8_" gradientUnits="userSpaceOnUse" x1="2.5093" y1="21.8291" x2="41.905" y2="42.9513">
				<stop  offset="0" style="stop-color:#FDE6A8"/>
				<stop  offset="0.4607" style="stop-color:#FFD800"/>
				<stop  offset="1" style="stop-color:#E49C00"/>
			</linearGradient>
			<path class="st15" d="M23.9,34.6c0,0,5.5,5.4,12.5,6.6c0.5-0.8,1.5-2.1,1.5-2.1c-5.9-0.6-9.6-3.9-12.1-6.4
				c-1.5-1.5-2.6-2-2.9-2.2C14.9,25.4,6.3,19.9,2,17.1l0,0c0,0-1.1,8.6,4.4,11.3c0,0,0.5,0.2,0.6,0.2C12.2,30.8,17,32.7,23.9,34.6z"
				/>
			<linearGradient id="SVGID_9_" gradientUnits="userSpaceOnUse" x1="14.0258" y1="40.7256" x2="31.0145" y2="40.7256">
				<stop  offset="0" style="stop-color:#FDE6A8"/>
				<stop  offset="0.4607" style="stop-color:#FFD800"/>
				<stop  offset="1" style="stop-color:#E49C00"/>
			</linearGradient>
			<path class="st16" d="M28.4,38.6c-3.5,0.2-8.2,0.2-14.4,0l0,0c0,0,1.5,4.7,6.7,4.1c3.2-0.4,7.7-1.7,10.3-2.7
				C30.2,39.7,29.3,39.2,28.4,38.6z"/>
			<linearGradient id="SVGID_10_" gradientUnits="userSpaceOnUse" x1="20.7528" y1="43.0378" x2="33.6224" y2="43.0378">
				<stop  offset="0" style="stop-color:#FDE6A8"/>
				<stop  offset="0.4607" style="stop-color:#FFD800"/>
				<stop  offset="1" style="stop-color:#E49C00"/>
			</linearGradient>
			<path class="st17" d="M33.6,41.1c-0.6-0.2-1.4-0.4-2.1-0.7c-3.7,1.6-8.5,2.7-10.8,3.1c0,0,0.8,2.4,3.9,2.4
				C27.6,45.6,30.9,43.4,33.6,41.1z"/>
			
				<linearGradient id="SVGID_11_" gradientUnits="userSpaceOnUse" x1="-5099.6396" y1="47.1533" x2="-5095.3296" y2="47.1533" gradientTransform="matrix(-1 0 0 1 -5044.7285 0)">
				<stop  offset="0" style="stop-color:#FDE6A8"/>
				<stop  offset="0.4607" style="stop-color:#FFD800"/>
				<stop  offset="1" style="stop-color:#E49C00"/>
			</linearGradient>
			<path class="st18" d="M54.9,48c0,0-1.3,1.2-3.8,0.7c0-0.1,0-0.3,0-0.4c0-1-0.2-2-0.5-2.9C51.8,46.6,53.2,47.6,54.9,48z"/>
			
				<linearGradient id="SVGID_12_" gradientUnits="userSpaceOnUse" x1="-5103.0879" y1="44.3234" x2="-5093.1284" y2="44.3234" gradientTransform="matrix(-1 0 0 1 -5044.7285 0)">
				<stop  offset="0" style="stop-color:#FDE6A8"/>
				<stop  offset="0.4607" style="stop-color:#FFD800"/>
				<stop  offset="1" style="stop-color:#E49C00"/>
			</linearGradient>
			<path class="st19" d="M49,42.7c-0.2-0.3-0.4-0.7-0.6-1c0.5-0.1,0.9-0.2,1.4-0.3c0.1,0,0.2-0.1,0.3-0.1c2,1.6,4.9,4.1,8.3,4.9
				c-0.1,0.1-1.4,2-4.2,1c-1.7-0.7-3.4-2.1-4.6-3.7C49.4,43.1,49.2,42.9,49,42.7z"/>
			
				<linearGradient id="SVGID_13_" gradientUnits="userSpaceOnUse" x1="-5122.4854" y1="33.756" x2="-5101.3672" y2="33.756" gradientTransform="matrix(-1 0 0 1 -5044.7285 0)">
				<stop  offset="0" style="stop-color:#FDE6A8"/>
				<stop  offset="0.4607" style="stop-color:#FFD800"/>
				<stop  offset="1" style="stop-color:#E49C00"/>
			</linearGradient>
			<path class="st20" d="M56.6,38.2c0.2-0.1,0.5-0.3,0.7-0.5c2.1-1.4,3.3-2.6,3.3-2.6c8.2-2.2,17.1-5.8,17.1-5.8s0,7.5-6.7,8.6
				C66.2,38.2,60.3,38.4,56.6,38.2z"/>
			
				<linearGradient id="SVGID_14_" gradientUnits="userSpaceOnUse" x1="-5126.4902" y1="21.8293" x2="-5087.0957" y2="42.9509" gradientTransform="matrix(-1 0 0 1 -5044.7285 0)">
				<stop  offset="0" style="stop-color:#FDE6A8"/>
				<stop  offset="0.4607" style="stop-color:#FFD800"/>
				<stop  offset="1" style="stop-color:#E49C00"/>
			</linearGradient>
			<path class="st21" d="M60.4,34.6c0,0-5.5,5.4-12.5,6.6c-0.5-0.8-1.5-2.1-1.5-2.1c5.9-0.6,9.6-3.9,12.1-6.4c1.5-1.5,2.6-2,2.9-2.2
				c8-5.1,16.5-10.6,20.8-13.3l0,0c0,0,1.1,8.6-4.4,11.3c0,0-0.5,0.2-0.6,0.2C72,30.8,67.3,32.7,60.4,34.6z"/>
			
				<linearGradient id="SVGID_15_" gradientUnits="userSpaceOnUse" x1="-5114.9751" y1="40.7256" x2="-5097.9858" y2="40.7256" gradientTransform="matrix(-1 0 0 1 -5044.7285 0)">
				<stop  offset="0" style="stop-color:#FDE6A8"/>
				<stop  offset="0.4607" style="stop-color:#FFD800"/>
				<stop  offset="1" style="stop-color:#E49C00"/>
			</linearGradient>
			<path class="st22" d="M55.9,38.6c3.5,0.2,8.2,0.2,14.4,0l0,0c0,0-1.5,4.7-6.7,4.1c-3.2-0.4-7.7-1.7-10.3-2.7
				C54.1,39.7,55,39.2,55.9,38.6z"/>
			
				<linearGradient id="SVGID_16_" gradientUnits="userSpaceOnUse" x1="-5108.2476" y1="43.0378" x2="-5095.3779" y2="43.0378" gradientTransform="matrix(-1 0 0 1 -5044.7285 0)">
				<stop  offset="0" style="stop-color:#FDE6A8"/>
				<stop  offset="0.4607" style="stop-color:#FFD800"/>
				<stop  offset="1" style="stop-color:#E49C00"/>
			</linearGradient>
			<path class="st23" d="M50.6,41.1c0.6-0.2,1.4-0.4,2.1-0.7c3.7,1.6,8.5,2.7,10.8,3.1c0,0-0.8,2.4-3.9,2.4
				C56.7,45.6,53.3,43.4,50.6,41.1z"/>
			<g>
				<linearGradient id="SVGID_17_" gradientUnits="userSpaceOnUse" x1="42.1193" y1="39.6826" x2="42.1193" y2="56.623">
					<stop  offset="0" style="stop-color:#FDE6A8"/>
					<stop  offset="0.4607" style="stop-color:#FFD800"/>
					<stop  offset="1" style="stop-color:#E49C00"/>
				</linearGradient>
				<path class="st24" d="M50.4,48.3c0,4.6-3.7,8.3-8.3,8.3c-4.6,0-8.3-3.7-8.3-8.3c0-4.6,3.7-8.3,8.3-8.3
					C46.7,40,50.4,43.7,50.4,48.3z"/>
				<g>
					<g>
						<path class="st0" d="M42.1,42c-0.3,0-0.6-0.2-0.6-0.6c0-0.3,0.3-0.5,0.6-0.5c0.3,0,0.5,0.2,0.5,0.5C42.7,41.8,42.4,42,42.1,42
							z"/>
					</g>
					<g>
						<path class="st0" d="M47,44c-0.3,0-0.6-0.2-0.6-0.5c0-0.3,0.2-0.5,0.6-0.5c0.3,0,0.5,0.2,0.5,0.5C47.5,43.8,47.3,44,47,44z"/>
					</g>
					<g>
						<path class="st0" d="M49,48.9c-0.3,0-0.6-0.2-0.6-0.5c0-0.3,0.2-0.6,0.6-0.6c0.3,0,0.5,0.2,0.5,0.6
							C49.5,48.6,49.3,48.9,49,48.9z"/>
					</g>
					<g>
						<path class="st0" d="M47,53.7c-0.3,0-0.6-0.2-0.6-0.6c0-0.3,0.2-0.5,0.6-0.5c0.3,0,0.5,0.2,0.5,0.5
							C47.5,53.5,47.3,53.7,47,53.7z"/>
					</g>
					<g>
						<path class="st0" d="M42.1,55.7c-0.3,0-0.6-0.2-0.6-0.5c0-0.3,0.3-0.5,0.6-0.5c0.3,0,0.5,0.2,0.5,0.5
							C42.7,55.5,42.4,55.7,42.1,55.7z"/>
					</g>
					<g>
						<path class="st0" d="M37.3,53.7c-0.3,0-0.6-0.2-0.6-0.6c0-0.3,0.2-0.5,0.6-0.5c0.3,0,0.5,0.2,0.5,0.5
							C37.8,53.5,37.6,53.7,37.3,53.7z"/>
					</g>
					<g>
						<path class="st0" d="M35.3,48.9c-0.3,0-0.5-0.2-0.5-0.6c0-0.3,0.2-0.6,0.5-0.6c0.3,0,0.6,0.2,0.6,0.6
							C35.8,48.6,35.6,48.9,35.3,48.9z"/>
					</g>
					<g>
						<path class="st0" d="M37.3,44c-0.3,0-0.6-0.2-0.6-0.5c0-0.3,0.2-0.5,0.6-0.5c0.3,0,0.6,0.2,0.6,0.5C37.8,43.8,37.6,44,37.3,44
							z"/>
					</g>
				</g>
				<g>
					
						<radialGradient id="SVGID_18_" cx="68.8728" cy="132.244" r="6.8779" gradientTransform="matrix(0.8 0 0 0.8 -12.9789 -57.4598)" gradientUnits="userSpaceOnUse">
						<stop  offset="0" style="stop-color:#036EB7"/>
						<stop  offset="0.573" style="stop-color:#003893"/>
					</radialGradient>
					<path class="st25" d="M47.6,48.4c0,3-2.5,5.5-5.6,5.4c-3,0-5.5-2.5-5.4-5.6c0-3,2.5-5.5,5.6-5.4C45.2,42.9,47.7,45.4,47.6,48.4
						z"/>
					<g>
						<g>
							<linearGradient id="SVGID_19_" gradientUnits="userSpaceOnUse" x1="41.1719" y1="48.8179" x2="46.6371" y2="50.3">
								<stop  offset="0" style="stop-color:#FDE6A8"/>
								<stop  offset="0.4607" style="stop-color:#FFD800"/>
								<stop  offset="1" style="stop-color:#E49C00"/>
							</linearGradient>
							<path class="st26" d="M46.4,49c0-2.6-1.7-3.9-3.1-3.9c-1.2,0-2.1,0.9-2.1,1.8c0,1,0.9,1.5,0.9,1.5s0.9-0.5,1.7,0
								c0.8,0.5,1.1,1.7,0.4,2.8c-0.7,1.2-2.8,1.9-5,0.5c-1.3-0.8-2-2.1-2.1-3.5c0,3.3,2.4,5.2,4.9,5.2c0.8,0,1.6-0.2,2.2-0.6
								C45.6,52,46.4,50.6,46.4,49z"/>
						</g>
						<g>
							
								<radialGradient id="SVGID_20_" cx="69.8004" cy="133.2395" r="9.4951" gradientTransform="matrix(0.8 0 0 0.8 -12.9789 -57.4598)" gradientUnits="userSpaceOnUse">
								<stop  offset="0" style="stop-color:#036EB7"/>
								<stop  offset="0.573" style="stop-color:#003893"/>
							</radialGradient>
							<path class="st27" d="M39.4,51.7c2.2,1.3,4.3,0.5,4.9-0.8c0.6-1.1,0.3-2.3-0.5-2.7c-0.8-0.5-1.7,0.1-1.7,0.1s0,1-0.9,1.5
								c-0.8,0.5-2,0.1-2.6-1c-0.7-1.2-0.3-3.4,2-4.6c1.3-0.7,2.8-0.7,4.1-0.1c-2.9-1.6-5.7-0.4-6.9,1.7c-0.4,0.7-0.6,1.5-0.6,2.2
								C37.2,49.5,38,50.9,39.4,51.7z"/>
						</g>
						<g>
							
								<radialGradient id="SVGID_21_" cx="68.7578" cy="132.5434" r="6.0446" gradientTransform="matrix(0.8 0 0 0.8 -12.9789 -57.4598)" gradientUnits="userSpaceOnUse">
								<stop  offset="0" style="stop-color:#E5002D"/>
								<stop  offset="0.219" style="stop-color:#DA032B"/>
								<stop  offset="0.6039" style="stop-color:#BD0C24"/>
								<stop  offset="1" style="stop-color:#98161C"/>
							</radialGradient>
							<path class="st28" d="M40.5,44.2c-2.2,1.3-2.6,3.4-1.9,4.6c0.6,1.1,1.8,1.4,2.6,0.9c0.8-0.5,0.8-1.5,0.8-1.5
								s-0.9-0.5-0.8-1.5c0-1,0.9-1.8,2.2-1.8c1.4,0,3,1.4,3,4c0,1.5-0.8,2.8-1.9,3.6c2.9-1.7,3.3-4.7,2-6.9c-0.4-0.7-1-1.2-1.6-1.6
								C43.5,43.4,41.9,43.4,40.5,44.2z"/>
						</g>
					</g>
				</g>
			</g>
			<g>
				<path class="st29" d="M51.1,48.7c2.5,0.5,3.9-0.7,3.9-0.7c-0.2,0-0.3-0.1-0.5-0.2c-0.6,0.3-1.7,0.8-3.3,0.4c0,0,0,0,0,0.1
					C51.1,48.5,51.1,48.6,51.1,48.7z"/>
				<path class="st29" d="M77.8,28.4c2.1-1,3.2-2.8,3.8-4.7l0,0c-0.7,1.2-1.8,2.7-3.3,3.6c0,0-3.9,2.5-18,6.8c0,0-6.6,6.2-12.7,6.7
					c0.1,0.2,0.2,0.3,0.3,0.5c7-1.1,12.5-6.6,12.5-6.6c6.8-1.9,11.6-3.8,16.8-6C77.2,28.6,77.8,28.4,77.8,28.4z"/>
				<path class="st29" d="M71,37.3c-4.5,0.3-9.9,0.4-13.5,0.3c-0.1,0-0.1,0.1-0.2,0.1c-0.2,0.2-0.5,0.3-0.7,0.5
					c3.6,0.2,9.6,0,14.4-0.3c2.8-0.5,4.4-2,5.3-3.6c0,0,0,0,0,0c0,0,0,0,0-0.1C75.4,35.6,73.5,36.9,71,37.3z"/>
				<path class="st29" d="M63.8,42.2c-3-0.4-7.3-1.6-9.9-2.4c-0.2,0.1-0.4,0.2-0.6,0.3c2.6,1,7.1,2.3,10.3,2.7
					c3,0.3,4.7-1.1,5.7-2.3C68.2,41.5,66.5,42.5,63.8,42.2z"/>
				<path class="st29" d="M59.8,45.3c-3.5-0.3-7.1-3.1-8.5-4.4c-0.2,0.1-0.4,0.1-0.6,0.2c2.7,2.4,6.1,4.6,8.9,4.7
					c1.9,0,3-0.9,3.5-1.6c0,0,0,0,0,0c0,0,0,0,0,0C62.5,44.7,61.4,45.4,59.8,45.3z"/>
				<path class="st29" d="M54.7,46.8c-2.3-0.9-4.4-3.2-5.8-5.2c-0.2,0-0.3,0.1-0.5,0.1c0.2,0.4,0.5,0.8,0.8,1.2
					c0,0.1,0.1,0.1,0.1,0.2c1.3,1.7,3,3.3,4.8,4c1.7,0.6,2.9,0.1,3.5-0.4c0,0,0,0,0,0C57.1,47.1,56,47.3,54.7,46.8z"/>
				<path class="st30" d="M58.8,33.1c1.5-1.5,2.6-2,2.9-2.2c8.7-5.8,13.9-8.6,20.7-13.1c0-0.4-0.1-0.7-0.1-0.7l0,0
					c-5,3.2-7.9,5.1-11.2,7.2c-3.1,2-6.4,4.1-9.6,6.1c-0.3,0.2-1.4,0.7-2.9,2.2c-2.5,2.5-6.1,5.8-12.1,6.4c0,0,0.1,0.2,0.3,0.4l0,0
					C48.8,39.4,53.6,38.5,58.8,33.1z"/>
				<path class="st30" d="M60.6,35.1c0,0-0.2,0.2-0.7,0.6c6.1-1.6,9.8-2.7,17.8-5.9c0-0.3,0-0.6,0-0.6S68.8,32.9,60.6,35.1z"/>
				<path class="st30" d="M70.2,38.6c-6.2,0.3-10.8,0.2-14.4,0c-0.1,0.1-0.3,0.2-0.4,0.2c3.8,0.3,9.7,0.4,14.6,0.1
					C70.2,38.8,70.2,38.6,70.2,38.6L70.2,38.6z"/>
				<path class="st30" d="M52.7,40.3c-0.1,0.1-0.3,0.1-0.4,0.2c3.6,1.8,8.5,2.9,11.1,3.3c0.1-0.2,0.2-0.3,0.2-0.3
					C61.2,43,56.4,42,52.7,40.3z"/>
				<path class="st30" d="M58.4,46.1C55,45.4,52,42.9,50,41.2c-0.1,0-0.2,0-0.3,0.1c0,0,0,0,0,0c3.4,3.2,6.3,4.6,8.4,5.1
					C58.3,46.2,58.3,46.2,58.4,46.1z"/>
			</g>
			<g>
				<path class="st29" d="M33.2,48.7c-2.5,0.5-3.9-0.7-3.9-0.7c0.2,0,0.3-0.1,0.5-0.2c0.6,0.3,1.7,0.8,3.3,0.4c0,0,0,0,0,0.1
					C33.2,48.5,33.2,48.6,33.2,48.7z"/>
				<path class="st29" d="M6.5,28.4c-2.1-1-3.2-2.8-3.8-4.7l0,0c0.7,1.2,1.8,2.7,3.3,3.6c0,0,3.9,2.5,18,6.8c0,0,6.6,6.2,12.7,6.7
					c-0.1,0.2-0.2,0.3-0.3,0.5c-7-1.1-12.5-6.6-12.5-6.6c-6.8-1.9-11.6-3.8-16.8-6C7,28.6,6.5,28.4,6.5,28.4z"/>
				<path class="st29" d="M13.2,37.3c4.5,0.3,9.9,0.4,13.5,0.3c0.1,0,0.1,0.1,0.2,0.1c0.2,0.2,0.5,0.3,0.7,0.5
					c-3.6,0.2-9.6,0-14.4-0.3c-2.8-0.5-4.4-2-5.3-3.6c0,0,0,0,0,0c0,0,0,0,0-0.1C8.9,35.6,10.8,36.9,13.2,37.3z"/>
				<path class="st29" d="M20.5,42.2c3-0.4,7.3-1.6,9.9-2.4c0.2,0.1,0.4,0.2,0.6,0.3c-2.6,1-7.1,2.3-10.3,2.7
					c-3,0.3-4.7-1.1-5.7-2.3C16,41.5,17.7,42.5,20.5,42.2z"/>
				<path class="st29" d="M24.5,45.3c3.5-0.3,7.1-3.1,8.5-4.4c0.2,0.1,0.4,0.1,0.6,0.2c-2.7,2.4-6.1,4.6-8.9,4.7
					c-1.9,0-3-0.9-3.5-1.6c0,0,0,0,0,0c0,0,0,0,0,0C21.8,44.7,22.9,45.4,24.5,45.3z"/>
				<path class="st29" d="M29.6,46.8c2.3-0.9,4.4-3.2,5.8-5.2c0.2,0,0.3,0.1,0.5,0.1c-0.2,0.4-0.5,0.8-0.8,1.2
					c0,0.1-0.1,0.1-0.1,0.2c-1.3,1.7-3,3.3-4.8,4c-1.7,0.6-2.9,0.1-3.5-0.4c0,0,0,0,0,0C27.2,47.1,28.3,47.3,29.6,46.8z"/>
				<path class="st30" d="M25.5,33.1c-1.5-1.5-2.6-2-2.9-2.2C14,25.2,8.7,22.4,2,17.8C2,17.4,2,17.1,2,17.1l0,0
					c5,3.2,7.9,5.1,11.2,7.2c3.1,2,6.4,4.1,9.6,6.1c0.3,0.2,1.4,0.7,2.9,2.2c2.5,2.5,6.1,5.8,12.1,6.4c0,0-0.1,0.2-0.3,0.4
					c0,0,0,0,0,0C35.5,39.4,30.7,38.5,25.5,33.1z"/>
				<path class="st30" d="M23.6,35.1c0,0,0.2,0.2,0.7,0.6c-6.1-1.6-9.8-2.7-17.8-5.9c0-0.3,0-0.6,0-0.6S15.4,32.9,23.6,35.1z"/>
				<path class="st30" d="M14,38.6c6.2,0.3,10.8,0.2,14.4,0c0.1,0.1,0.3,0.2,0.4,0.2C25,39.1,19,39.3,14.2,39
					C14.1,38.8,14,38.6,14,38.6L14,38.6z"/>
				<path class="st30" d="M31.6,40.3c0.1,0.1,0.3,0.1,0.4,0.2c-3.6,1.8-8.5,2.9-11.1,3.3c-0.1-0.2-0.2-0.3-0.2-0.3
					C23.1,43,27.9,42,31.6,40.3z"/>
				<path class="st30" d="M25.9,46.1c3.4-0.8,6.4-3.3,8.3-4.9c0.1,0,0.2,0,0.3,0.1c0,0,0,0,0,0c-3.4,3.2-6.3,4.6-8.4,5.1
					C26,46.2,25.9,46.2,25.9,46.1z"/>
			</g>
			<g>
				<path class="st30" d="M52.9,57.1c0.1-0.2,0.2-0.3,0.3-0.5c-1.1-0.1-2.9-0.6-4.4-2.2c-0.1,0.1-0.2,0.3-0.4,0.4
					C50,56.5,51.5,56.9,52.9,57.1z"/>
				<path class="st29" d="M48.8,61.3c-1.4-1.4-2.4-4-2.7-5c-0.1,0.1-0.3,0.1-0.4,0.2c0.2,0.9,1.2,4.2,2.8,5.5
					c0.1,0.1,0.3,0.2,0.5-0.1c0.1-0.1,0.3-0.3,0.4-0.4C49.3,61.6,49,61.6,48.8,61.3z"/>
				<path class="st30" d="M50.9,49.8c2.4,0.6,4.1-0.3,4.4-0.5c0,0,0-0.1,0-0.1c0,0,0-0.1,0-0.1c0-0.1,0-0.2,0-0.4
					c0,0-0.9,0.6-2.5,0.7c-0.1,0-0.1,0-0.2,0c-0.1,0-0.1,0-0.2,0c-0.1,0-0.2,0-0.3,0c0,0,0,0-0.1,0c-0.4,0-0.8-0.1-1.2-0.1
					C51,49.5,51,49.6,50.9,49.8z"/>
				<path class="st29" d="M53.3,55.4c-1.6-0.1-2.9-0.9-3.9-1.8c-0.1,0.1-0.2,0.3-0.3,0.4c0.5,0.5,1.7,1.7,4,2c0.1,0,0.3,0,0.5-0.3
					c0.1-0.1,0.1-0.2,0.1-0.3C53.6,55.3,53.4,55.4,53.3,55.4z"/>
				<path class="st30" d="M48.2,62.8c-0.7-0.5-2-2-3.1-6c-0.2,0.1-0.3,0.1-0.5,0.1C46,62.7,48.2,62.8,48.2,62.8z"/>
				<path class="st29" d="M43.8,64.5c-0.2-1.6-0.3-5.6-0.3-7.4c-0.2,0-0.3,0-0.5,0.1c0,0.6,0,6.9,0.3,8.6c0,0,0,0,0,0
					c0,0,0,0.1,0,0.1c0,0,0,0,0,0c0,0,0,0.1,0,0.1c0,0,2.2-0.9,4.6-3.1c-1.5,1.1-2.9,1.7-3.7,1.9C44.2,65,43.8,65,43.8,64.5z"/>
			</g>
			<g>
				<path class="st30" d="M31.4,57.1c-0.1-0.2-0.2-0.3-0.3-0.5c1.1-0.1,2.9-0.6,4.4-2.2c0.1,0.1,0.2,0.3,0.4,0.4
					C34.3,56.5,32.7,56.9,31.4,57.1z"/>
				<path class="st29" d="M35.5,61.3c1.4-1.4,2.4-4,2.7-5c0.1,0.1,0.3,0.1,0.4,0.2c-0.2,0.9-1.2,4.2-2.8,5.5
					c-0.1,0.1-0.3,0.2-0.5-0.1c-0.1-0.1-0.3-0.3-0.4-0.4C35,61.6,35.2,61.6,35.5,61.3z"/>
				<path class="st30" d="M33.3,49.8c-2.4,0.6-4.1-0.3-4.4-0.5c0,0,0-0.1,0-0.1c0,0,0-0.1,0-0.1c0-0.1,0-0.2,0-0.4
					c0,0,0.9,0.6,2.5,0.7c0.1,0,0.1,0,0.2,0c0.1,0,0.1,0,0.2,0c0.1,0,0.2,0,0.3,0c0,0,0,0,0.1,0c0.4,0,0.8-0.1,1.2-0.1
					C33.3,49.5,33.3,49.6,33.3,49.8z"/>
				<path class="st29" d="M31,55.4c1.6-0.1,2.9-0.9,3.9-1.8c0.1,0.1,0.2,0.3,0.3,0.4c-0.5,0.5-1.7,1.7-4,2c-0.1,0-0.3,0-0.5-0.3
					c-0.1-0.1-0.1-0.2-0.2-0.3C30.7,55.3,30.9,55.4,31,55.4z"/>
				<path class="st30" d="M36.1,62.8c0.7-0.5,2-2,3.1-6c0.2,0.1,0.3,0.1,0.5,0.1C38.2,62.7,36.1,62.8,36.1,62.8z"/>
				<path class="st29" d="M40.5,64.5c0.2-1.6,0.3-5.6,0.3-7.4c0.2,0,0.3,0,0.5,0.1c0,0.6,0,6.9-0.3,8.6c0,0,0,0,0,0c0,0,0,0.1,0,0.1
					c0,0,0,0,0,0c0,0,0,0.1,0,0.1c0,0-2.2-0.9-4.6-3.1c1.5,1.1,2.9,1.7,3.7,1.9C40.1,65,40.5,65,40.5,64.5z"/>
			</g>
			<path class="st0" d="M39.3,37.9c0.6-1.4,0.8-2.2,0.8-3.7c-0.1,0-2.1-1-2,0c-0.3-0.3-0.7-1.3,0.2-1.6c0.3-0.1,0.7-0.1,1.3,0l1,0.3
				c0.4-0.5,1.2-0.6,1.7-0.6v-0.1c-1.4-0.5-2.3-0.2-2.5-0.1c0.4-1.2,1.5-1.2,2.5-1c0.7,0.2,1.4,0.4,1.8,0.5c0.4,0.1,1.1,0,1.4-0.2
				c0.2,0.7-0.1,1.5-0.9,1.5c0,0-0.2,3.6,0.8,5.4c0.7,1.2,1.3,2,1.7,2.6c-1.4-0.9-3.1-1.4-4.8-1.4c-1.8,0-3.4,0.5-4.8,1.4
				C37.8,40.1,39,38.5,39.3,37.9z M83.1,16.6c0-1.1-0.7-0.6-0.7-0.6c-7.8,5.3-18.6,12.1-21.8,14.1c-1.6,1-2.9,2.3-3.5,3
				c-5.5,5.5-11,5.3-11.1,5.3c-1.2-1.5-1-5-1-5c1.8-0.7,0.6-3,0.6-3c-1,1-2.2,0.5-2.2,0.5c-0.5-0.2-1-0.4-1.4-0.4
				c-3-0.4-3.2,1.6-3.2,1.6c-0.8-0.1-1.6,0-1.9,0.9c-0.4,1.4,1.1,2,1.1,2c0-1,1.3-0.3,1.3-0.3c0.1,1.6-0.8,3.1-1.2,3.7
				c-0.3,0-5.6,0.1-11.1-5.3c-0.6-0.6-1.9-1.9-3.5-3c-3.2-2-14-8.8-21.8-14.1c0,0-0.7-0.5-0.7,0.6c-0.4,4.8,0.3,9.8,4.5,12.4
				c0,0-0.5,8.1,7.5,9.7c0,0,1.6,5,6.9,4.8c0,0,0.9,2.2,3.3,2.8c0,0,1,0.2,1.9,0c0,0,0.5,1.4,2.7,1.8c0,0,0.1,13.4,14.1,19.6
				C56.2,61.4,56.3,48,56.3,48c2.1-0.3,2.7-1.8,2.7-1.8c1,0.2,1.9,0,1.9,0c2.5-0.6,3.3-2.8,3.3-2.8c5.2,0.2,6.9-4.8,6.9-4.8
				c8-1.6,7.5-9.7,7.5-9.7C82.8,26.3,83.5,21.3,83.1,16.6z M2,17.1L2,17.1c4.3,2.8,12.8,8.2,20.8,13.3c0.3,0.2,1.4,0.7,2.9,2.2
				c2.5,2.5,6.1,5.8,12.1,6.4c0,0-1,1.3-1.5,2.1c-7-1.1-12.5-6.6-12.5-6.6c-6.8-1.9-11.6-3.8-16.8-6c0,0-0.5-0.2-0.6-0.2
				C0.9,25.7,2,17.1,2,17.1z M6.5,29.3c0,0,8.9,3.7,17.1,5.8c0,0,1.2,1.2,3.3,2.6c0.2,0.2,0.5,0.3,0.7,0.5c-3.6,0.2-9.6,0-14.4-0.3
				C6.5,36.7,6.5,29.3,6.5,29.3z M14,38.6L14,38.6c6.2,0.2,10.8,0.2,14.3,0c0.9,0.6,1.8,1.1,2.6,1.4c-2.6,1-7.1,2.3-10.3,2.7
				C15.6,43.4,14,38.6,14,38.6z M24.7,45.8c-3.1,0-3.9-2.3-3.9-2.4c2.4-0.4,7.1-1.5,10.8-3.1c0.7,0.3,1.5,0.6,2.1,0.7
				C30.9,43.4,27.6,45.6,24.7,45.8z M25.9,46.1c3.4-0.8,6.4-3.3,8.3-4.9c0.1,0,0.2,0,0.3,0.1c0.4,0.1,0.9,0.2,1.4,0.3
				c-0.2,0.3-0.4,0.7-0.6,1c-0.2,0.2-0.4,0.5-0.5,0.7c-1.3,1.6-2.9,3-4.6,3.7C27.3,48.1,26,46.2,25.9,46.1z M33.2,48.8
				c-2.5,0.5-3.8-0.7-3.8-0.7c1.7-0.5,3.1-1.5,4.3-2.6c-0.3,0.9-0.5,1.9-0.5,2.9C33.2,48.5,33.2,48.6,33.2,48.8z M30.7,55.6
				c-0.8-1.8-1.5-3.9-1.7-6.3c0,0,0-0.1,0-0.1c0-0.1,0-0.2,0-0.4c0,0,1.8,1.1,4.4,0.6c0.2,1.7,0.9,3.3,1.9,4.6c-0.5,0.5-1.7,1.7-4,2
				C31,55.9,30.8,55.9,30.7,55.6z M35.8,62.1c-0.1,0.1-0.3,0.2-0.5-0.1c-1.4-1.4-2.9-3.2-4.1-5.4c1.1-0.1,2.9-0.6,4.4-2.2
				c0.8,0.9,1.9,1.6,3,2.1C38.3,57.4,37.4,60.7,35.8,62.1z M41.3,57.9c0,1.9-0.1,7.2-0.3,8.2c0,0,0,0,0,0v0c0,0-2.3-1-4.9-3.3
				c0.7-0.5,2-2,3.1-6c0.7,0.2,1.4,0.4,2.1,0.4C41.3,57.4,41.3,57.6,41.3,57.9z M42.1,56.6c-4.6,0-8.3-3.7-8.3-8.3
				c0-4.6,3.7-8.3,8.3-8.3c4.6,0,8.3,3.7,8.3,8.3C50.4,52.9,46.7,56.6,42.1,56.6z M43.3,66.1c-0.3-0.9-0.3-6.3-0.3-8.2
				c0-0.3,0-0.5,0-0.7c0.7-0.1,1.4-0.2,2.1-0.4c1.2,4,2.5,5.5,3.1,6C45.6,65.1,43.3,66.1,43.3,66.1z M49,62
				c-0.2,0.2-0.4,0.1-0.5,0.1c-1.6-1.3-2.6-4.7-2.8-5.5c1.1-0.5,2.2-1.2,3-2.2c1.5,1.6,3.3,2,4.4,2.2C51.9,58.8,50.5,60.6,49,62z
				 M55.4,49.1c0,0,0,0.1,0,0.1c-0.3,2.4-0.9,4.5-1.8,6.4c-0.2,0.3-0.4,0.3-0.5,0.3c-2.3-0.3-3.6-1.5-4-2c1-1.3,1.7-2.9,1.9-4.6
				c2.6,0.6,4.4-0.6,4.4-0.6C55.4,48.9,55.4,49,55.4,49.1z M50.6,45.4c1.2,1.1,2.7,2.2,4.3,2.6c0,0-1.4,1.2-3.9,0.7
				c0-0.1,0-0.3,0-0.4C51.1,47.3,50.9,46.3,50.6,45.4z M54.2,47.1c-1.8-0.8-3.6-2.3-4.8-4c0-0.1-0.1-0.1-0.1-0.2
				c-0.3-0.4-0.6-0.8-0.8-1.2c0.5-0.1,0.9-0.2,1.4-0.3c0.1,0,0.2-0.1,0.3-0.1c2,1.6,4.9,4.1,8.3,4.9C58.3,46.2,56.9,48.1,54.2,47.1z
				 M59.6,45.8c-2.9-0.1-6.2-2.4-8.9-4.7c0.5-0.2,1.4-0.4,2.1-0.7c3.7,1.6,8.5,2.7,10.8,3.1C63.5,43.4,62.7,45.8,59.6,45.8z
				 M70.2,38.6c0,0-1.5,4.7-6.7,4.1c-3.2-0.4-7.7-1.7-10.3-2.7c0.8-0.4,1.7-0.9,2.6-1.4C59.4,38.9,64.1,38.9,70.2,38.6L70.2,38.6z
				 M71,37.9c-4.8,0.3-10.7,0.5-14.4,0.3c0.2-0.1,0.5-0.3,0.7-0.5c2.1-1.4,3.3-2.6,3.3-2.6c8.2-2.2,17.1-5.8,17.1-5.8
				S77.8,36.7,71,37.9z M77.8,28.4c0,0-0.5,0.2-0.6,0.2c-5.2,2.2-10,4-16.8,6c0,0-5.5,5.4-12.5,6.6c-0.5-0.8-1.5-2.1-1.5-2.1
				c5.9-0.6,9.6-3.9,12.1-6.4c1.5-1.5,2.6-2,2.9-2.2c8-5.1,16.5-10.6,20.8-13.3l0,0C82.2,17.1,83.3,25.7,77.8,28.4z"/>
			<linearGradient id="SVGID_22_" gradientUnits="userSpaceOnUse" x1="42.1435" y1="31.5299" x2="42.1435" y2="40.9768">
				<stop  offset="0" style="stop-color:#FDE6A8"/>
				<stop  offset="0.4607" style="stop-color:#FFD800"/>
				<stop  offset="1" style="stop-color:#E49C00"/>
			</linearGradient>
			<path class="st31" d="M42.1,39.4c1.8,0,3.4,0.5,4.8,1.4c-0.5-0.6-1.1-1.4-1.7-2.6c-1-1.8-0.8-5.4-0.8-5.4c0.8,0,1.2-0.8,0.9-1.5
				c-0.3,0.2-1,0.3-1.4,0.2c-0.4,0-1.1-0.3-1.8-0.5c-1-0.2-2.1-0.2-2.5,1c0.2-0.1,1.1-0.4,2.5,0.1v0.1c-0.4,0-1.2,0.2-1.7,0.6
				l-1-0.3c-0.6-0.2-1-0.1-1.3,0c-0.9,0.3-0.5,1.4-0.2,1.6c-0.1-1,1.9-0.1,2,0c0.1,1.5-0.1,2.3-0.8,3.7c-0.2,0.6-1.4,2.3-1.9,2.9
				C38.7,39.9,40.4,39.4,42.1,39.4z"/>
			<path class="st30" d="M42.1,31.7c0.7,0.2,1.4,0.4,1.8,0.5c0.4,0.1,1,0.1,1.4-0.1c0.1-0.2,0.1-0.5,0-0.8c-0.3,0.2-1,0.3-1.4,0.2
				c-0.4,0-1.1-0.3-1.8-0.5c-1-0.2-2.1-0.2-2.5,1c0.1,0,0.3-0.1,0.6-0.1C40.7,31.6,41.4,31.6,42.1,31.7z"/>
			<path class="st30" d="M38.2,33.2c0.3-0.1,0.7-0.1,1.4,0.1l1,0.3c0.1-0.5,1-1.2,1.5-1.4c0,0-0.8,0-1.3,0.3
				c-0.1,0.1-0.3,0.2-0.4,0.3l-0.7-0.2c-0.9-0.3-1.4-0.2-1.6-0.1c-0.6,0.2-0.6,0.7-0.5,1.1C37.8,33.5,37.9,33.3,38.2,33.2z"/>
		</g>
	</g>
	<path class="st0" d="M94.5,21.2c0,0.4,0,4.8,0,4.8s-5.9,0-6.3,0c0,0.3,0,3.1,0,3.5c0.3,0,2.6,0,2.6,0l-0.1,0.3
		c-0.6,1.1-0.9,2.3-0.9,3.5c0,4,3.2,7.2,7.2,7.2c4,0,7.2-3.2,7.2-7.2c0-1.2-0.3-2.4-0.9-3.5l-0.2-0.3c0,0,2.1,0,2.4,0
		c0-0.3,0-3.1,0-3.5c-0.4,0-6,0-6,0s0-4.4,0-4.8C99.2,21.2,94.8,21.2,94.5,21.2z M94.7,33.2c0-2.2,1-3.8,2.4-3.8
		c1.3,0,2.4,1.7,2.4,3.8c0,2.1-1.1,3.9-2.4,3.9C95.7,37,94.7,35.4,94.7,33.2z"/>
	<path class="st0" d="M113.4,21.7c0,0.4,0,9.8,0,9.8h-2.4c0,0,0-9.4,0-9.8c-0.3,0-3.9,0-4.3,0c0,0.4,0,31.8,0,32.2
		c0.3,0,3.9,0,4.3,0c0-0.4,0-18.8,0-18.8h2.4c0,0,0,18.4,0,18.8c0.3,0,3.9,0,4.3,0c0-0.4,0-31.8,0-32.2
		C117.4,21.7,113.8,21.7,113.4,21.7z"/>
	<g>
		<path class="st0" d="M144.6,21.7c0,0.4,0,16.7,0,17.1c0.4,0,4.6,0,4.9,0c0-0.4,0-3.6,0-3.6s4.2,0,4.6,0c0-0.3,0-3,0-3.3
			c-0.4,0-4.6,0-4.6,0v-3c0,0,4.2,0,4.6,0c0-0.3,0-3,0-3.3c-0.4,0-4.6,0-4.6,0s0-3.5,0-3.8C149.2,21.7,145,21.7,144.6,21.7z"/>
		<path class="st0" d="M131.9,47.3c0,4.2,3.8,7.6,8.4,7.6c4.7,0,8.4-3.4,8.4-7.6c0-4.2-3.8-7.6-8.4-7.6
			C135.7,39.7,131.9,43.1,131.9,47.3z M136.8,47.3c0-2.3,1.5-4.1,3.5-4.1c2,0,3.6,1.8,3.6,4.1c0,2.3-1.6,4.1-3.6,4.1
			C138.3,51.4,136.8,49.6,136.8,47.3z"/>
		<path class="st0" d="M125,30.2c0,4.1,3.6,7.5,8,7.5c4.4,0,8.1-3.4,8.1-7.5c0-4.1-3.6-7.4-8.1-7.4C128.6,22.8,125,26.1,125,30.2z
			 M129.8,30.2c0-2.1,1.5-4,3.3-4c1.7,0,3.3,1.9,3.3,4c0,2.2-1.5,4.1-3.3,4.1C131.3,34.3,129.8,32.4,129.8,30.2z"/>
	</g>
	<g>
		<path class="st0" d="M168,47.4c0,4.1,3.7,7.5,8.3,7.5c4.6,0,8.3-3.3,8.3-7.5c0-4.1-3.7-7.5-8.3-7.5C171.7,39.9,168,43.3,168,47.4z
			 M172.9,47.4c0-2.3,1.5-4,3.4-4c1.9,0,3.4,1.7,3.4,4c0,2.2-1.5,4-3.4,4C174.3,51.3,172.9,49.6,172.9,47.4z"/>
		<path class="st0" d="M180.7,21.7c0,0.4,0,4.7,0,4.7H175l0.1-1.4v-1.7h-13.8v3.3h8.5v0.6c0,2.4-0.7,4.2-2.4,5.9
			c-1.8,1.8-4.2,3-6.9,3.4c0,0,2.3,2.7,2.3,2.7c2.8-0.3,5.6-1.7,8.3-4.4c1.4-1.4,2.5-3.3,3.2-5.2h6.5v2.5c0,0-5.8,0-6.2,0
			c0,0.3,0,3,0,3.3c0.4,0,6.2,0,6.2,0s0,3.1,0,3.5c0.4,0,4.6,0,4.9,0c0-0.4,0-16.9,0-17.3C185.3,21.7,181.1,21.7,180.7,21.7z"/>
	</g>
	<g>
		<path class="st0" d="M236.5,47.1c0,4.1,3.7,7.5,8.3,7.5c4.6,0,8.3-3.4,8.3-7.5c0-4.1-3.7-7.5-8.3-7.5
			C240.2,39.7,236.5,43,236.5,47.1z M241.4,47.1c0-2.3,1.4-4,3.4-4c1.9,0,3.4,1.7,3.4,4c0,2.2-1.5,4-3.4,4
			C242.8,51.1,241.4,49.4,241.4,47.1z"/>
		<path class="st0" d="M249.9,21.7c0,0.4,0,6.7,0,6.7s-3.3,0-3.6,0c0,0.3,0,3.3,0,3.6c0.4,0,3.6,0,3.6,0s0,6.5,0,6.8
			c0.4,0,4.6,0,4.9,0c0-0.4,0-16.8,0-17.2C254.4,21.7,250.2,21.7,249.9,21.7z"/>
		<path class="st0" d="M235.4,21.2c0,0.4,0,3.9,0,3.9s-5.1,0-5.5,0c0,0.3,0,3.2,0,3.5c0.4,0,5.4,0,5.4,0v0.2c0,2.6-2.7,6.6-6.3,7
			c0.1,0,2,2.4,2,2.4l0.4,0.6c2.3-0.5,4.7-2.4,6.2-5.1c0.1-0.1,0.2-0.3,0.4-0.3c0.2,0,0.3,0.2,0.4,0.3c1.1,2.4,4.4,4.7,5.8,4.8l0,0
			c0-0.1,2.2-2.7,2.2-2.7c-0.6-0.1-1.8-0.5-3.5-2.1c-1.5-1.5-2.3-3.1-2.3-4.8v-0.2c0,0,4.7,0,5.1,0c0-0.3,0-3.2,0-3.5
			c-0.4,0-5.1,0-5.1,0s0-3.5,0-3.9C240.2,21.2,235.7,21.2,235.4,21.2z"/>
	</g>
	<g>
		<path class="st0" d="M214.2,21.7c0,0.4,0,16.8,0,17.2c0.4,0,4.6,0,4.9,0c0-0.4,0-7.2,0-7.2s3.7,0,4.1,0c0-0.3,0-3.3,0-3.6
			c-0.4,0-4.1,0-4.1,0s0-6,0-6.4C218.8,21.7,214.5,21.7,214.2,21.7z"/>
		<path class="st0" d="M199.8,21.2c0,0.4,0,3.9,0,3.9s-5.4,0-5.8,0c0,0.3,0,3.2,0,3.5c0.4,0,5.7,0,5.7,0v0.2c0,2.3-1.3,3.9-2.4,5
			c-1.3,1.2-2.6,1.9-4.3,2.1c0.1,0,1.4,1.6,1.4,1.6l1,1.1c1.7-0.3,4.6-1.7,6.5-4.8c0.1-0.2,0.2-0.3,0.4-0.3c0.2,0,0.3,0.2,0.4,0.3
			c1.5,2.7,4.8,4.7,6.4,4.8c0-0.1,2.5-2.7,2.5-2.7c-1.5-0.1-2.9-0.6-4.4-2.1c-1.5-1.5-2.2-3.1-2.2-4.8v-0.2c0,0,5.3,0,5.7,0
			c0-0.3,0-3.2,0-3.5c-0.4,0-5.7,0-5.7,0s0-3.5,0-3.9C204.6,21.2,200.1,21.2,199.8,21.2z"/>
		<path class="st0" d="M198.4,40.7c0,0.3,0,2.5,0,2.9c0.4,0,15.7,0,15.7,0v2.3c0,0-15.3,0-15.7,0c0,0.4,0,5.3,0,5.3
			c0,2.1,0.7,2.8,2.7,2.8c0,0,18,0,18.4,0c0-0.3,0-2.6,0-2.9c-0.4,0-15.4,0-15.4,0c-0.5,0-0.6-0.3-0.6-0.5v-1.9h15.1
			c0.4,0,0.5-0.2,0.5-0.5v-7.2c0-0.2-0.1-0.2-0.2-0.2C218.9,40.7,198.8,40.7,198.4,40.7z"/>
	</g>
	<g>
		<path class="st0" d="M88.6,60.7h2.5v5.6l3.5-5.6h3.1l-3.9,5.7l4.4,6.6h-3.3l-3.7-6.4V73h-2.5V60.7z"/>
		<path class="st0" d="M103.4,60.6c3.3,0,5.3,2.4,5.3,6.3c0,2.8-1,4.9-2.7,5.9c-0.7,0.4-1.4,0.6-2.5,0.6c-1.9,0-3.1-0.5-4-1.7
			c-0.9-1.2-1.4-2.8-1.4-4.6c0-2.7,1-4.8,2.8-5.8C101.5,60.8,102.4,60.6,103.4,60.6z M103.3,62.5c-0.8,0-1.6,0.4-1.9,1.1
			c-0.4,0.8-0.6,1.9-0.6,3.4c0,2.1,0.4,3.4,1.1,4c0.4,0.3,0.9,0.4,1.5,0.4c1.7,0,2.4-1.3,2.4-4.5c0-1.3-0.1-2.2-0.3-2.9
			C105.3,63.4,104.6,62.5,103.3,62.5z"/>
		<path class="st0" d="M110.3,60.7l4.6,0c2.2,0,3.6,1.5,3.6,3.6c0,1.8-1.2,3.4-2.7,3.4c0.2,0.2,0.4,0.3,0.5,0.5c0.7,0.9,3,4.8,3,4.8
			h-2.9c-0.5-0.8-0.7-1.2-1.2-2c-1.2-2.2-1.6-2.8-2-3c-0.1-0.1-0.2-0.1-0.4-0.1V73h-2.4V60.7z M112.8,62.7l0,3.3h0.8
			c1.1,0,1.5-0.1,1.9-0.4c0.3-0.3,0.5-0.7,0.5-1.2c0-0.8-0.3-1.3-0.9-1.5c-0.3-0.1-0.8-0.2-1.4-0.2H112.8z"/>
		<path class="st0" d="M120.5,60.7h7l-0.3,2H123v2.9h3.5v2h-3.5v3.3h4.7V73h-7.2V60.7z"/>
		<path class="st0" d="M132.4,60.7h2.7l3.9,12.4h-2.7l-0.9-2.9h-3.6l-0.9,2.9h-2.6L132.4,60.7z M132.4,68.1h2.4c0,0-0.4-1.3-0.7-2.5
			c-0.1-0.6-0.5-2.2-0.5-2.2s-0.4,1.5-0.6,2.4C132.8,66.7,132.7,67.2,132.4,68.1z"/>
		<path class="st0" d="M153.8,61.4l-1.1,1.7c-0.6-0.5-1.3-0.7-2-0.7c-0.8,0-1.6,0.4-2.1,1.1c-0.5,0.7-0.7,1.7-0.7,3.2
			c0,1.7,0.1,2.6,0.5,3.3c0.5,0.9,1.3,1.4,2.4,1.4c0.7,0,1.3-0.2,1.9-0.6c0.1-0.1,0.2-0.1,0.2-0.2l1.1,1.6c-1,0.8-2,1.2-3.4,1.2
			c-1.7,0-3-0.5-4-1.7c-1-1.1-1.5-2.6-1.5-4.4c0-1.5,0.3-2.8,0.8-3.8c1-1.8,2.7-2.9,4.7-2.9C151.9,60.5,153.2,60.9,153.8,61.4z"/>
		<path class="st0" d="M159.9,60.6c3.3,0,5.3,2.4,5.3,6.3c0,2.8-1,4.9-2.7,5.9c-0.7,0.4-1.4,0.6-2.5,0.6c-1.9,0-3.1-0.5-4-1.7
			c-0.9-1.2-1.4-2.8-1.4-4.6c0-2.7,1-4.8,2.8-5.8C158.1,60.8,159,60.6,159.9,60.6z M159.9,62.5c-0.8,0-1.6,0.4-1.9,1.1
			c-0.4,0.8-0.6,1.9-0.6,3.4c0,2.1,0.4,3.4,1.1,4c0.4,0.3,0.9,0.4,1.5,0.4c1.7,0,2.4-1.3,2.4-4.5c0-1.3-0.1-2.2-0.3-2.9
			C161.9,63.4,161.2,62.5,159.9,62.5z"/>
		<path class="st0" d="M169.4,60.7h2.7L176,73h-2.7l-0.9-2.9h-3.6L168,73h-2.6L169.4,60.7z M169.4,68.1h2.4c0,0-0.4-1.3-0.7-2.5
			c-0.1-0.6-0.5-2.2-0.5-2.2s-0.4,1.5-0.6,2.4C169.9,66.7,169.7,67.2,169.4,68.1z"/>
		<path class="st0" d="M185.5,61.6l-1.2,1.8c-1.1-0.7-1.9-0.9-2.9-0.9c-1,0-1.7,0.6-1.7,1.4c0,0.6,0.3,1,1.4,1.2l1.5,0.4
			c2,0.5,3.1,1.8,3.1,3.7c0,2.5-2,4.2-5.1,4.2c-1.4,0-3-0.4-4.2-1.1l0.9-1.9c1.2,0.6,2.1,1,3.4,1c1.4,0,2.2-0.6,2.2-1.7
			c0-0.8-0.5-1.3-1.6-1.6l-1.4-0.4c-1.2-0.3-2-0.8-2.4-1.6c-0.3-0.5-0.5-1.2-0.5-1.9c0-2.3,1.8-3.8,4.4-3.8
			C182.9,60.4,184.5,60.8,185.5,61.6z"/>
		<path class="st0" d="M186.6,60.7h8.9l-0.4,2.1h-2.9V73h-2.5V62.8h-3V60.7z"/>
		<path class="st0" d="M212,61.9l-1.3,1.5c-0.8-0.7-1.6-1-2.6-1c-0.7,0-1.3,0.2-1.8,0.6c-0.8,0.8-1,2.1-1,4c0,1.8,0.3,2.9,0.9,3.5
			c0.5,0.4,1.1,0.7,1.9,0.7c0.5,0,1-0.1,1.4-0.3v-2.8h-1.9l-0.3-2h4.8v5.9c-1.3,0.7-2.6,1.1-4.1,1.1c-1.8,0-3.2-0.6-4.2-1.9
			c-0.9-1.2-1.3-2.5-1.3-4.3c0-2.6,0.9-4.5,2.6-5.6c0.9-0.6,1.8-0.9,3-0.9C209.6,60.5,210.9,61,212,61.9z"/>
		<path class="st0" d="M214.2,60.7h2.5v8.1c0,0.9,0,1.1,0.2,1.5c0.3,0.5,0.9,0.9,1.7,0.9c1.1,0,1.8-0.5,1.9-1.4c0-0.3,0-0.4,0-1.1
			v-7.9h2.5V69c0,1.2,0,1.4-0.2,1.9c-0.3,1-1.5,2.3-4.2,2.3c-1.9,0-3.2-0.6-4-1.6c-0.4-0.6-0.5-1.1-0.5-2.3V60.7z"/>
		<path class="st0" d="M228.1,60.7h2.7l3.9,12.4H232l-0.9-2.9h-3.6l-0.9,2.9H224L228.1,60.7z M228.1,68.1h2.4c0,0-0.4-1.3-0.7-2.5
			c-0.1-0.6-0.5-2.2-0.5-2.2s-0.4,1.5-0.6,2.4C228.5,66.7,228.4,67.2,228.1,68.1z"/>
		<path class="st0" d="M235.8,60.7l4.6,0c2.2,0,3.6,1.5,3.6,3.6c0,1.8-1.2,3.4-2.7,3.4c0.2,0.2,0.4,0.3,0.5,0.5c0.7,0.9,3,4.8,3,4.8
			h-2.9c-0.5-0.8-0.7-1.2-1.2-2c-1.2-2.2-1.6-2.8-2-3c-0.1-0.1-0.2-0.1-0.4-0.1V73h-2.4V60.7z M238.3,62.7l0,3.3h0.8
			c1.1,0,1.5-0.1,1.9-0.4c0.3-0.3,0.5-0.7,0.5-1.2c0-0.8-0.3-1.3-0.9-1.5c-0.3-0.1-0.8-0.2-1.4-0.2H238.3z"/>
		<path class="st0" d="M246.4,60.8h2.5c0.7,0,1.6,0,2.1,0.1c1,0.1,1.9,0.5,2.7,1.2c1.1,1.1,1.7,2.7,1.7,4.9c0,1.7-0.4,3.1-1.2,4.2
			c-0.7,1-1.8,1.6-3,1.8c-0.5,0-1,0.1-1.8,0.1h-3V60.8z M248.9,62.7V71h1.3c1.6,0,2.4-1.2,2.4-3.8c0-1.4-0.1-2.6-0.6-3.5
			c-0.4-0.7-1-1-2-1H248.9z"/>
	</g>
</g>
</svg>
