<?xml version="1.0" encoding="utf-8"?>
<!-- Generator: Adobe Illustrator 24.1.2, SVG Export Plug-In . SVG Version: 6.00 Build 0)  -->
<svg version="1.1" id="Capa_1" xmlns="http://www.w3.org/2000/svg" xmlns:xlink="http://www.w3.org/1999/xlink" x="0px" y="0px"
	 viewBox="0 0 469.3 469.3" style="enable-background:new 0 0 469.3 469.3;" xml:space="preserve">
<style type="text/css">
	.st0{fill:none;}
	.st1{fill:none;stroke:#0B4094;stroke-width:13;stroke-miterlimit:10;}
	.st2{fill:#0B4094;}
</style>
<line class="st0" x1="236" y1="-7957" x2="236" y2="8426"/>
<circle class="st1" cx="236" cy="234.7" r="220"/>
<g>
	<g>
		<path class="st2" d="M236,147.3c12.7,0,23-10.3,23-22.9v-10.3c0-3.5-2.8-6.3-6.3-6.3h-33.4c-3.5,0-6.3,2.8-6.3,6.3v10.3
			C213.1,137,223.4,147.3,236,147.3z M225.6,120.4h20.8v4c0,5.7-4.7,10.4-10.4,10.4c-5.7,0-10.4-4.7-10.4-10.4V120.4z"/>
		<path class="st2" d="M370.7,360.6c-0.5-18.7-2.3-36.5-18.5-47.8l3.8-7.4c0.8-1.5,0.9-3.2,0.4-4.8c-0.5-1.6-1.6-2.9-3.1-3.7
			c-12.6-6.4-27.8-11-38.9-14.3l-13.9-4.2c-2.8-0.8-5.8,0.4-7.3,2.9l-4.8,8.4l-15.9-5.1v-19.3c20.8-12.1,35.1-34.2,36.2-59.6h4.3
			c12.7,0,23-10.3,23-22.9c0-10.9-7.7-20.1-18-22.4c4.6-6.3,8.1-13.8,11.4-20.9c1.2-2.5,2.3-4.9,3.4-7.1c2.3-4.6,5.1-11.5,2.1-17.6
			c-2.9-5.9-9.5-7.9-16.2-9.3c-12.9-2.6-31.4-6.9-43.1-14.7c-16.6-11-27.9-17-39.7-17c-11.8,0-23,6-39.7,17
			c-11.7,7.8-30.2,12.1-43.1,14.7c-6.7,1.3-13.3,3.4-16.2,9.3c-3,6-0.2,12.9,2.1,17.5c1.1,2.2,2.2,4.6,3.4,7.1
			c3.3,7,6.8,14.6,11.4,20.9c-10.3,2.3-18,11.4-18,22.4c0,12.6,10.3,22.9,23,22.9h4.3c1.1,25.4,15.4,47.5,36.2,59.6v19.4l-15.9,5.1
			l-4.8-8.4c-1.4-2.5-4.5-3.8-7.3-2.9l-13.9,4.2c-11.1,3.3-26.3,7.9-38.9,14.3c-1.5,0.8-2.6,2.1-3.1,3.7c-0.5,1.6-0.4,3.3,0.4,4.8
			l3.8,7.4c-16.2,11.3-18,29-18.5,47.8c0,0.1,0,0.1,0,0.2v28.1c0,3.5,2.8,6.3,6.3,6.3h256.8c3.5,0,6.3-2.8,6.3-6.3v-28.1
			C370.7,360.7,370.7,360.7,370.7,360.6L370.7,360.6z M301.7,292l9.1,2.7c9,2.7,20.7,6.2,31.1,10.8l-7.5,14.5
			c-9-3.9-19-6.9-28.1-9.6l-12.9-3.9L301.7,292z M278.6,307.1C278.6,307.1,278.6,307.1,278.6,307.1L267.3,327l-20.7-15.3l20.9-15.5
			l14.7,4.8L278.6,307.1z M224.8,356.2h22.4l9.1,26.4h-40.5L224.8,356.2z M246.9,343.6h-21.7l-3.6-13.5l14.4-10.6l14.4,10.6
			L246.9,343.6z M323.5,182.8c0,5.7-4.7,10.4-10.4,10.4h-4.2v-20.7h4.2C318.8,172.4,323.5,177,323.5,182.8z M148.4,120.3
			c0.2-0.3,1.5-1.3,7.4-2.5c15.1-3,34.2-7.7,47.6-16.6c14.6-9.7,24.1-14.9,32.7-14.9s18.1,5.2,32.7,14.9
			c13.4,8.9,32.5,13.5,47.6,16.6c5.9,1.2,7.1,2.2,7.4,2.5c0,0.2,0.2,1.9-2.1,6.4c-1.2,2.4-2.3,4.8-3.5,7.4
			c-4.7,10-9.9,21.3-17.1,25.6h-8.4h-28.3c-3.5,0-6.3,2.8-6.3,6.3c0,3.5,2.8,6.3,6.3,6.3h25.6c-12.6,13-32.2,20.7-53.9,20.7
			s-41.3-7.7-53.9-20.7h25.6c3.5,0,6.3-2.8,6.3-6.3c0-3.5-2.8-6.3-6.3-6.3h-28.3H171c-7.1-4.3-12.4-15.6-17.1-25.6
			c-1.2-2.6-2.4-5.1-3.5-7.4C148.2,122.2,148.3,120.6,148.4,120.3L148.4,120.3z M148.5,182.8c0-5.7,4.7-10.4,10.4-10.4h4.2l0,20.7
			h-4.2C153.2,193.1,148.5,188.5,148.5,182.8L148.5,182.8z M175.7,202.5l0-18.8c5.5,5.2,12,9.6,19.3,13.1c12.3,5.8,26.4,8.9,41,8.9
			c14.5,0,28.7-3.1,41-8.9c7.3-3.5,13.8-7.9,19.3-13.1v18.8c0,23.1-13.2,43.3-32.4,53.3c-0.3,0.1-0.6,0.3-0.8,0.4
			c-8.1,4.1-17.3,6.4-27,6.4c-9.7,0-18.9-2.3-27.1-6.4c-0.2-0.1-0.5-0.3-0.8-0.4C188.9,245.7,175.7,225.6,175.7,202.5L175.7,202.5z
			 M236,275.2c8.4,0,16.5-1.4,24-4.1v15l-24,17.8l-24-17.8v-15C219.5,273.7,227.6,275.2,236,275.2L236,275.2z M204.6,296.2
			l20.9,15.5L204.7,327l-11.3-19.8c0,0,0,0,0,0l-3.5-6.2L204.6,296.2z M161.3,294.7l9.1-2.7l8.3,14.5l-12.9,3.9
			c-9,2.7-19.1,5.7-28.1,9.6l-7.5-14.5C140.6,300.9,152.3,297.4,161.3,294.7L161.3,294.7z M113.9,360.9c0.5-20.4,3.4-30.3,11.7-36.7
			l3.6,7c1.1,2.2,3.3,3.4,5.6,3.4c1,0,1.9-0.2,2.8-0.7c9.3-4.7,21.2-8.3,31.7-11.5l15.7-4.7l12.3,21.6c0.9,1.6,2.4,2.7,4.2,3
			c0.4,0.1,0.9,0.1,1.3,0.1c1.3,0,2.6-0.4,3.7-1.2l4.3-3.1l3.1,11.5l-11.3,32.9H161v-22.1c0-3.5-2.8-6.3-6.3-6.3
			c-3.5,0-6.3,2.8-6.3,6.3v22.1h-34.6L113.9,360.9z M358.1,382.6h-34.6v-22.1c0-3.5-2.8-6.3-6.3-6.3s-6.3,2.8-6.3,6.3v22.1h-41.4
			l-11.3-33l3.1-11.5l4.3,3.1c1.1,0.8,2.4,1.2,3.7,1.2c0.4,0,0.9,0,1.3-0.1c1.8-0.4,3.3-1.5,4.1-3l12.3-21.6l15.7,4.7
			c10.5,3.2,22.4,6.7,31.7,11.5c0.9,0.5,1.9,0.7,2.8,0.7c2.3,0,4.5-1.2,5.6-3.4l3.6-7c8.3,6.5,11.2,16.3,11.7,36.7L358.1,382.6
			L358.1,382.6z"/>
		<path class="st2" d="M236,159.8c-3.5,0-6.3,2.8-6.3,6.3c0,3.5,2.8,6.3,6.3,6.3h0c3.5,0,6.3-2.8,6.3-6.3
			C242.3,162.6,239.5,159.8,236,159.8L236,159.8z"/>
	</g>
</g>
<line class="st0" x1="-7957" y1="228" x2="8426" y2="228"/>
</svg>
