<?xml version="1.0" encoding="utf-8"?>
<!-- Generator: Adobe Illustrator 24.1.2, SVG Export Plug-In . SVG Version: 6.00 Build 0)  -->
<svg version="1.1" id="Capa_1" xmlns="http://www.w3.org/2000/svg" xmlns:xlink="http://www.w3.org/1999/xlink" x="0px" y="0px"
	 viewBox="0 0 469.3 469.3" style="enable-background:new 0 0 469.3 469.3;" xml:space="preserve">
<style type="text/css">
	.st0{fill:none;}
	.st1{fill:none;stroke:#0B4094;stroke-width:13;stroke-miterlimit:10;}
	.st2{fill:#0B4094;}
</style>
<line class="st0" x1="236" y1="-7957" x2="236" y2="8426"/>
<circle class="st1" cx="236" cy="234.7" r="220"/>
<line class="st0" x1="-7957" y1="228" x2="8426" y2="228"/>
<g>
	<path class="st2" d="M213.2,329.7h-14.6c-2.7,0-4.9-2.2-4.9-4.9s2.2-4.9,4.9-4.9h14.6c2.7,0,4.9,2.2,4.9,4.9S216,329.7,213.2,329.7
		z"/>
	<path class="st2" d="M335.9,329.7h-88.2c-2.7,0-4.9-2.2-4.9-4.9s2.2-4.9,4.9-4.9h84.5c7.4-21.3,37.8-49.8,39.1-51.1
		c24.2-21.9,27.6-55.7,28-68.7c-22.4,3.2-45.3,7-68.2,11.5c-76.3,15-151.3,35.6-224.6,61.7c-16.2,5.8-27.5,10.2-32.5,12.2v34.5h41.3
		c2.7,0,4.9,2.2,4.9,4.9c0,2.7-2.2,4.9-4.9,4.9H69.1c-2.7,0-4.9-2.2-4.9-4.9V282c0-2,1.2-3.8,3.1-4.6c0.1-0.1,13.3-5.5,36-13.6
		c73.7-26.2,149.3-47,226.1-62.1c24.9-4.9,49.9-9.1,74.3-12.4c2.7-0.4,5.2,1.5,5.5,4.2c0,0.1,0,0.2,0,0.4
		c0.1,2.1,2.6,51.4-31.1,81.9c-9.2,8.6-34,34.5-37.3,49.8C340.3,328,338.3,329.7,335.9,329.7L335.9,329.7z"/>
	<path class="st2" d="M164.1,329.7h-14.3c-2.7,0-4.9-2.2-4.9-4.9s2.2-4.9,4.9-4.9h14.3c2.7,0,4.9,2.2,4.9,4.9
		S166.8,329.7,164.1,329.7z"/>
	<path class="st2" d="M104.9,273.4c-2.7,0-4.9-2.2-4.9-4.9v-71.8c0-2.2,1.5-4.2,3.7-4.8c54.5-14.2,166.9-21.4,171.6-21.7
		c1-0.1,1.9,0.2,2.8,0.7l54.6,31.5c2.4,1.3,3.2,4.4,1.8,6.7c-1.3,2.4-4.4,3.2-6.7,1.8c0,0,0,0-0.1,0l-53.3-30.8
		c-13.4,0.9-113.1,7.9-164.6,20.4v68C109.8,271.2,107.6,273.4,104.9,273.4z"/>
	<path class="st2" d="M104.9,236.3c-2.7,0-4.9-2.2-4.9-4.9c0-2.1,1.3-4,3.3-4.7c64-23.2,194.2-42.6,195.5-42.7
		c2.7-0.4,5.2,1.5,5.6,4.2s-1.5,5.2-4.2,5.6c-1.3,0.2-130.6,19.4-193.6,42.3C106,236.2,105.5,236.3,104.9,236.3L104.9,236.3z"/>
	<path class="st2" d="M186,188.1c-2.2,0-4.1-1.5-4.7-3.6l-10-34.9c-0.7-2.6,0.8-5.3,3.4-6.1c0.4-0.1,0.9-0.2,1.4-0.2h35.3
		c2.2,0,4.1,1.4,4.7,3.5l9.8,31.2c0.2,0.5,0.2,1,0.2,1.5c0,2.7-2.2,5-4.9,5c-2.3,0-4.3-1.6-4.9-3.8l-8.6-27.4h-25.1l8.2,28.7
		c0.7,2.6-0.8,5.3-3.4,6.1C187,188.1,186.5,188.1,186,188.1L186,188.1z"/>
	<path class="st2" d="M129.7,196.2c-2.2,0-4.2-1.5-4.8-3.7l-11.1-43c-0.7-2.6,0.9-5.3,3.5-6c0.4-0.1,0.8-0.2,1.2-0.2h35.3
		c2.2,0,4.1,1.4,4.7,3.5l11.4,37.5c0.8,2.6-0.7,5.4-3.3,6.1c-2.6,0.8-5.4-0.7-6.1-3.3l-10.4-34H125l9.5,36.9c0.7,2.6-0.9,5.3-3.5,6
		c0,0,0,0,0,0C130.6,196.2,130.2,196.2,129.7,196.2L129.7,196.2z"/>
	<path class="st2" d="M308.5,252.4c2.7,0,4.9-2.2,4.9-4.9s-2.2-4.9-4.9-4.9c-2.7,0-4.9,2.2-4.9,4.9S305.8,252.4,308.5,252.4z"/>
	<path class="st2" d="M279.6,259.1c2.7,0,4.9-2.2,4.9-4.9s-2.2-4.9-4.9-4.9s-4.9,2.2-4.9,4.9S276.9,259.1,279.6,259.1z"/>
	<path class="st2" d="M250.7,265.8c2.7,0,4.9-2.2,4.9-4.9c0-2.7-2.2-4.9-4.9-4.9s-4.9,2.2-4.9,4.9
		C245.8,263.6,248,265.8,250.7,265.8z"/>
</g>
</svg>
