<?xml version="1.0" encoding="utf-8"?>
<!-- Generator: Adobe Illustrator 24.1.2, SVG Export Plug-In . SVG Version: 6.00 Build 0)  -->
<svg version="1.1" id="레이어_1" xmlns="http://www.w3.org/2000/svg" xmlns:xlink="http://www.w3.org/1999/xlink" x="0px"
	 y="0px" viewBox="0 0 62 60" style="enable-background:new 0 0 62 60;" xml:space="preserve">
<style type="text/css">
	.st0{fill:#27A8E0;}
	.st1{fill:#FFFFFF;}
</style>
<g>
	<path class="st0" d="M59.9,47.9c0,5.7-4.6,10.3-10.3,10.3h-36C8,58.2,3.4,53.6,3.4,47.9V12.4C3.4,6.7,8,2.1,13.6,2.1h36
		c5.7,0,10.3,4.6,10.3,10.3V47.9z"/>
	<path class="st1" d="M50.2,20.1c-1.4,0.6-2.8,1-4.4,1.2c1.6-0.9,2.8-2.4,3.3-4.2c-1.5,0.9-3.1,1.5-4.8,1.8
		c-1.4-1.5-3.4-2.4-5.6-2.4c-4.2,0-7.6,3.4-7.6,7.6c0,0.6,0.1,1.2,0.2,1.7c-6.3-0.3-11.9-3.4-15.7-8c-0.7,1.1-1,2.4-1,3.8
		c0,2.6,1.3,5,3.4,6.3c-1.2,0-2.4-0.4-3.4-1v0.1c0,3.7,2.6,6.8,6.1,7.5c-0.6,0.2-1.3,0.3-2,0.3c-0.5,0-1,0-1.4-0.1
		c1,3,3.8,5.2,7.1,5.3c-2.6,2-5.9,3.3-9.5,3.3c-0.6,0-1.2,0-1.8-0.1c3.4,2.2,7.4,3.4,11.7,3.4c14,0,21.7-11.6,21.7-21.7
		c0-0.3,0-0.7,0-1C47.9,22.9,49.1,21.6,50.2,20.1"/>
</g>
</svg>
