<?xml version="1.0" encoding="utf-8"?>
<!-- Generator: Adobe Illustrator 24.1.2, SVG Export Plug-In . SVG Version: 6.00 Build 0)  -->
<svg version="1.1" id="레이어_1" xmlns="http://www.w3.org/2000/svg" xmlns:xlink="http://www.w3.org/1999/xlink" x="0px"
	 y="0px" viewBox="0 0 62 60" style="enable-background:new 0 0 62 60;" xml:space="preserve">
<style type="text/css">
	.st0{fill:#D1252A;}
	.st1{fill:#FFFFFF;}
	.st2{fill:#D02527;}
</style>
<g>
	<path class="st0" d="M59.3,47.9c0,5.7-4.6,10.3-10.3,10.3h-36c-5.7,0-10.3-4.6-10.3-10.3V12.3C2.8,6.6,7.4,2,13.1,2h36
		c5.7,0,10.3,4.6,10.3,10.3V47.9z"/>
	<path class="st1" d="M42.9,19c-1.2-0.2-7.1-0.4-11.8-0.4c-4.7,0-10.6,0.2-11.8,0.4c-2.1,0.3-3.3,1.3-3.9,3.8
		c-0.2,0.8-0.5,5.4-0.5,7.1v0.4c0,1.7,0.3,6.3,0.5,7.1c0.6,2.5,1.8,3.4,3.9,3.8c1.2,0.2,7.1,0.4,11.8,0.4l0,0
		c4.7,0,10.6-0.2,11.8-0.4c2.1-0.3,3.3-1.3,3.9-3.8c0.2-0.8,0.5-5.4,0.5-7.1v-0.4c0-1.7-0.3-6.3-0.5-7.1C46.1,20.3,45,19.4,42.9,19"
		/>
	<polygon class="st2" points="27.2,25.9 34.9,30 27.2,34.3 	"/>
</g>
</svg>
